<svg width="164" height="164" viewBox="0 0 164 164" fill="none" xmlns="http://www.w3.org/2000/svg">
<g clip-path="url(#clip0_1618_14274)">
<path d="M82 142C115.137 142 142 115.137 142 82C142 48.8629 115.137 22 82 22C48.8629 22 22 48.8629 22 82C22 115.137 48.8629 142 82 142Z" fill="#E9EAF0"/>
<mask id="path-2-inside-1_1618_14274" fill="white">
<path d="M118.298 75.51L118.193 76.157L118.844 76.087C119.388 76.03 119.94 76 120.5 76C129.06 76 136 82.94 136 91.5C136 100.06 129.06 107 120.5 107H120.366H120.232H120.097H119.963H119.828H119.694H119.559H119.424H119.289H119.153H119.018H118.883H118.747H118.611H118.475H118.339H118.203H118.067H117.93H117.794H117.657H117.52H117.383H117.246H117.109H116.972H116.834H116.697H116.559H116.421H116.283H116.145H116.007H115.869H115.73H115.592H115.453H115.314H115.175H115.036H114.897H114.758H114.619H114.479H114.34H114.2H114.06H113.92H113.78H113.64H113.5H113.36H113.219H113.079H112.938H112.797H112.656H112.515H112.374H112.233H112.092H111.95H111.809H111.667H111.525H111.384H111.242H111.1H110.957H110.815H110.673H110.531H110.388H110.245H110.103H109.96H109.817H109.674H109.531H109.388H109.244H109.101H108.957H108.814H108.67H108.526H108.383H108.239H108.095H107.951H107.806H107.662H107.518H107.373H107.229H107.084H106.939H106.795H106.65H106.505H106.36H106.215H106.069H105.924H105.779H105.633H105.488H105.342H105.197H105.051H104.905H104.759H104.613H104.467H104.321H104.175H104.028H103.882H103.736H103.589H103.442H103.296H103.149H103.002H102.855H102.708H102.562H102.414H102.267H102.12H101.973H101.826H101.678H101.531H101.383H101.236H101.088H100.94H100.792H100.645H100.497H100.349H100.201H100.053H99.905H99.756H99.608H99.46H99.312H99.163H99.015H98.866H98.718H98.569H98.42H98.272H98.123H97.974H97.825H97.676H97.527H97.378H97.229H97.08H96.931H96.782H96.632H96.483H96.334H96.184H96.035H95.885H95.736H95.586H95.437H95.287H95.137H94.988H94.838H94.688H94.538H94.388H94.239H94.089H93.939H93.789H93.639H93.488H93.338H93.188H93.038H92.888H92.738H92.587H92.437H92.287H92.136H91.986H91.835H91.685H91.534H91.384H91.233H91.083H90.932H90.782H90.631H90.48H90.33H90.179H90.028H89.878H89.727H89.576H89.425H89.274H89.124H88.973H88.822H88.671H88.52H88.369H88.218H88.067H87.916H87.765H87.614H87.463H87.312H87.161H87.01H86.859H86.708H86.557H86.406H86.255H86.104H85.953H85.802H85.651H85.5H85.349H85.197H85.046H84.895H84.744H84.593H84.442H84.291H84.14H83.989H83.837H83.686H83.535H83.384H83.233H83.082H82.931H82.78H82.629H82.478H82.327H82.176H82.024H81.873H81.722H81.571H81.42H81.269H81.118H80.967H80.816H80.665H80.515H80.364H80.213H80.062H79.911H79.76H79.609H79.458H79.308H79.157H79.006H78.855H78.705H78.554H78.403H78.253H78.102H77.951H77.801H77.65H77.5H77.349H77.199H77.048H76.898H76.747H76.597H76.447H76.296H76.146H75.996H75.845H75.695H75.545H75.395H75.245H75.095H74.945H74.795H74.645H74.495H74.345H74.195H74.045H73.895H73.746H73.596H73.446H73.297H73.147H72.998H72.848H72.699H72.549H72.4H72.251H72.101H71.952H71.803H71.654H71.505H71.356H71.207H71.058H70.909H70.76H70.611H70.462H70.314H70.165H70.017H69.868H69.72H69.571H69.423H69.274H69.126H68.978H68.83H68.682H68.534H68.386H68.238H68.09H67.942H67.794H67.647H67.499H67.352H67.204H67.057H66.909H66.762H66.615H66.468H66.321H66.174H66.027H65.88H65.733H65.586H65.439H65.293H65.146H65H64.853H64.707H64.561H64.415H64.269H64.123H63.977H63.831H63.685H63.539H63.394H63.248H63.103H62.957H62.812H62.667H62.522H62.376H62.231H62.087H61.942H61.797H61.652H61.508H61.363H61.219H61.074H60.93H60.786H60.642H60.498H60.354H60.21H60.067H59.923H59.78H59.636H59.493H59.35H59.206H59.063H58.92H58.778H58.635H58.492H58.35H58.207H58.065H57.923H57.78H57.638H57.496H57.354H57.213H57.071H56.929H56.788H56.647H56.505H56.364H56.223H56.082H55.941H55.801H55.66H55.52H55.379H55.239H55.099H54.959H54.819H54.679H54.539H54.4H54.26H54.121H53.981H53.842H53.703H53.564H53.425H53.287H53.148H53.01H52.871H52.733H52.595H52.457H52.319H52.181H52.044H51.906H51.769H51.632H51.495H51.358H51.221H51.084H50.947H50.811H50.675H50.538H50.402H50.266H50.13H49.995H49.859H49.724H49.588H49.453H49.318H49.183H49.048H48.914H48.779H48.645H48.511H48.377H48.243H48.109H47.975H47.841H47.708H47.575H47.442H47.309H47.176H47.043H46.911H46.778H46.646H46.514H46.382H46.25C36.171 107 28 98.829 28 88.75C28 78.671 36.171 70.5 46.25 70.5C47.181 70.5 48.095 70.57 48.988 70.704L49.607 70.797L49.561 70.173C49.521 69.621 49.5 69.063 49.5 68.5C49.5 56.074 59.574 46 72 46C81.55 46 89.712 51.95 92.978 60.347L93.216 60.96L93.743 60.567C96.326 58.64 99.529 57.5 103 57.5C111.56 57.5 118.5 64.44 118.5 73C118.5 73.855 118.431 74.693 118.298 75.51Z"/>
</mask>
<path d="M118.298 75.51L118.193 76.157L118.844 76.087C119.388 76.03 119.94 76 120.5 76C129.06 76 136 82.94 136 91.5C136 100.06 129.06 107 120.5 107H120.366H120.232H120.097H119.963H119.828H119.694H119.559H119.424H119.289H119.153H119.018H118.883H118.747H118.611H118.475H118.339H118.203H118.067H117.93H117.794H117.657H117.52H117.383H117.246H117.109H116.972H116.834H116.697H116.559H116.421H116.283H116.145H116.007H115.869H115.73H115.592H115.453H115.314H115.175H115.036H114.897H114.758H114.619H114.479H114.34H114.2H114.06H113.92H113.78H113.64H113.5H113.36H113.219H113.079H112.938H112.797H112.656H112.515H112.374H112.233H112.092H111.95H111.809H111.667H111.525H111.384H111.242H111.1H110.957H110.815H110.673H110.531H110.388H110.245H110.103H109.96H109.817H109.674H109.531H109.388H109.244H109.101H108.957H108.814H108.67H108.526H108.383H108.239H108.095H107.951H107.806H107.662H107.518H107.373H107.229H107.084H106.939H106.795H106.65H106.505H106.36H106.215H106.069H105.924H105.779H105.633H105.488H105.342H105.197H105.051H104.905H104.759H104.613H104.467H104.321H104.175H104.028H103.882H103.736H103.589H103.442H103.296H103.149H103.002H102.855H102.708H102.562H102.414H102.267H102.12H101.973H101.826H101.678H101.531H101.383H101.236H101.088H100.94H100.792H100.645H100.497H100.349H100.201H100.053H99.905H99.756H99.608H99.46H99.312H99.163H99.015H98.866H98.718H98.569H98.42H98.272H98.123H97.974H97.825H97.676H97.527H97.378H97.229H97.08H96.931H96.782H96.632H96.483H96.334H96.184H96.035H95.885H95.736H95.586H95.437H95.287H95.137H94.988H94.838H94.688H94.538H94.388H94.239H94.089H93.939H93.789H93.639H93.488H93.338H93.188H93.038H92.888H92.738H92.587H92.437H92.287H92.136H91.986H91.835H91.685H91.534H91.384H91.233H91.083H90.932H90.782H90.631H90.48H90.33H90.179H90.028H89.878H89.727H89.576H89.425H89.274H89.124H88.973H88.822H88.671H88.52H88.369H88.218H88.067H87.916H87.765H87.614H87.463H87.312H87.161H87.01H86.859H86.708H86.557H86.406H86.255H86.104H85.953H85.802H85.651H85.5H85.349H85.197H85.046H84.895H84.744H84.593H84.442H84.291H84.14H83.989H83.837H83.686H83.535H83.384H83.233H83.082H82.931H82.78H82.629H82.478H82.327H82.176H82.024H81.873H81.722H81.571H81.42H81.269H81.118H80.967H80.816H80.665H80.515H80.364H80.213H80.062H79.911H79.76H79.609H79.458H79.308H79.157H79.006H78.855H78.705H78.554H78.403H78.253H78.102H77.951H77.801H77.65H77.5H77.349H77.199H77.048H76.898H76.747H76.597H76.447H76.296H76.146H75.996H75.845H75.695H75.545H75.395H75.245H75.095H74.945H74.795H74.645H74.495H74.345H74.195H74.045H73.895H73.746H73.596H73.446H73.297H73.147H72.998H72.848H72.699H72.549H72.4H72.251H72.101H71.952H71.803H71.654H71.505H71.356H71.207H71.058H70.909H70.76H70.611H70.462H70.314H70.165H70.017H69.868H69.72H69.571H69.423H69.274H69.126H68.978H68.83H68.682H68.534H68.386H68.238H68.09H67.942H67.794H67.647H67.499H67.352H67.204H67.057H66.909H66.762H66.615H66.468H66.321H66.174H66.027H65.88H65.733H65.586H65.439H65.293H65.146H65H64.853H64.707H64.561H64.415H64.269H64.123H63.977H63.831H63.685H63.539H63.394H63.248H63.103H62.957H62.812H62.667H62.522H62.376H62.231H62.087H61.942H61.797H61.652H61.508H61.363H61.219H61.074H60.93H60.786H60.642H60.498H60.354H60.21H60.067H59.923H59.78H59.636H59.493H59.35H59.206H59.063H58.92H58.778H58.635H58.492H58.35H58.207H58.065H57.923H57.78H57.638H57.496H57.354H57.213H57.071H56.929H56.788H56.647H56.505H56.364H56.223H56.082H55.941H55.801H55.66H55.52H55.379H55.239H55.099H54.959H54.819H54.679H54.539H54.4H54.26H54.121H53.981H53.842H53.703H53.564H53.425H53.287H53.148H53.01H52.871H52.733H52.595H52.457H52.319H52.181H52.044H51.906H51.769H51.632H51.495H51.358H51.221H51.084H50.947H50.811H50.675H50.538H50.402H50.266H50.13H49.995H49.859H49.724H49.588H49.453H49.318H49.183H49.048H48.914H48.779H48.645H48.511H48.377H48.243H48.109H47.975H47.841H47.708H47.575H47.442H47.309H47.176H47.043H46.911H46.778H46.646H46.514H46.382H46.25C36.171 107 28 98.829 28 88.75C28 78.671 36.171 70.5 46.25 70.5C47.181 70.5 48.095 70.57 48.988 70.704L49.607 70.797L49.561 70.173C49.521 69.621 49.5 69.063 49.5 68.5C49.5 56.074 59.574 46 72 46C81.55 46 89.712 51.95 92.978 60.347L93.216 60.96L93.743 60.567C96.326 58.64 99.529 57.5 103 57.5C111.56 57.5 118.5 64.44 118.5 73C118.5 73.855 118.431 74.693 118.298 75.51Z" fill="white" stroke="#5D6674" stroke-width="2" mask="url(#path-2-inside-1_1618_14274)"/>
<path d="M56.5 68.5C56.5 59.663 63.663 52.5 72.5 52.5" stroke="#5D6674"/>
<path d="M129.5 91.5C129.5 86.529 125.023 82.5 119.5 82.5" stroke="#5D6674"/>
<path d="M101 87.5H63C62.1716 87.5 61.5 88.1716 61.5 89V95C61.5 95.8284 62.1716 96.5 63 96.5H101C101.828 96.5 102.5 95.8284 102.5 95V89C102.5 88.1716 101.828 87.5 101 87.5Z" fill="#E1312F" stroke="white"/>
<path d="M67 93H65V91H67V93Z" fill="white"/>
<path d="M71 93H69V91H71V93Z" fill="white"/>
<path d="M75 93H73V91H75V93Z" fill="white"/>
<path d="M101 98.5H63C62.1716 98.5 61.5 99.1716 61.5 100V106C61.5 106.828 62.1716 107.5 63 107.5H101C101.828 107.5 102.5 106.828 102.5 106V100C102.5 99.1716 101.828 98.5 101 98.5Z" fill="#E1312F" stroke="white"/>
<path d="M67 104H65V102H67V104Z" fill="white"/>
<path d="M71 104H69V102H71V104Z" fill="white"/>
<path d="M75 104H73V102H75V104Z" fill="white"/>
<path d="M101 109.5H63C62.1716 109.5 61.5 110.172 61.5 111V117C61.5 117.828 62.1716 118.5 63 118.5H101C101.828 118.5 102.5 117.828 102.5 117V111C102.5 110.172 101.828 109.5 101 109.5Z" fill="#E1312F" stroke="white"/>
<path d="M67 115H65V113H67V115Z" fill="white"/>
<path d="M71 115H69V113H71V115Z" fill="white"/>
<path d="M75 115H73V113H75V115Z" fill="white"/>
</g>
<defs>
<clipPath id="clip0_1618_14274">
<rect width="164" height="164" fill="white"/>
</clipPath>
</defs>
</svg>
