<svg width="164" height="164" viewBox="0 0 164 164" fill="none" xmlns="http://www.w3.org/2000/svg">
<g clip-path="url(#clip0_1622_14016)">
<path d="M82 142C115.137 142 142 115.137 142 82C142 48.8629 115.137 22 82 22C48.8629 22 22 48.8629 22 82C22 115.137 48.8629 142 82 142Z" fill="#E9EAF0"/>
<path d="M32.5243 44.5H131.476C132.605 44.5 133.5 45.3903 133.5 46.4627V107.537C133.5 108.61 132.605 109.5 131.476 109.5H32.5243C31.3946 109.5 30.5 108.61 30.5 107.537V46.4627C30.5 45.3903 31.3946 44.5 32.5243 44.5Z" fill="white" stroke="#5D6674"/>
<path d="M30.5 99.5H133" stroke="#5D6674"/>
<path d="M129 50H35V56H129V50Z" fill="#E1312F"/>
<path d="M53.5 58V97" stroke="#5D6674"/>
<path d="M48.5 61.5V61H48H36H35.5V61.5V62.5V63H36H48H48.5V62.5V61.5Z" stroke="#5D6674"/>
<path d="M48.5 68.5V68H48H36H35.5V68.5V69.5V70H36H48H48.5V69.5V68.5Z" stroke="#5D6674"/>
<path d="M48.5 75.5V75H48H36H35.5V75.5V76.5V77H36H48H48.5V76.5V75.5Z" stroke="#5D6674"/>
<rect x="71.5" y="109.5" width="21" height="9" fill="white" stroke="#5D6674" stroke-linejoin="round"/>
<path d="M70.8 118.5C70.7757 118.5 70.7513 118.502 70.7273 118.505L63.9273 119.505C63.668 119.543 63.4822 119.775 63.5013 120.036C63.5204 120.298 63.738 120.5 64 120.5H100C100.262 120.5 100.48 120.298 100.499 120.036C100.518 119.775 100.332 119.543 100.073 119.505L93.2727 118.505C93.2487 118.502 93.2243 118.5 93.2 118.5H70.8Z" fill="white" stroke="#5D6674" stroke-linejoin="round"/>
</g>
<defs>
<clipPath id="clip0_1622_14016">
<rect width="164" height="164" fill="white"/>
</clipPath>
</defs>
</svg>
