<svg xmlns="http://www.w3.org/2000/svg" width="512" height="623" fill="none"><g clip-path="url(#a)"><path fill="#C74634" d="M58.37 41.45h8.84l-4.67-7.8-8.59 14.1h-3.9l10.44-16.91a2.52 2.52 0 0 1 2.03-1.1 2.42 2.42 0 0 1 2.03 1.07l10.48 16.93h-3.9l-1.85-3.15h-8.94l-1.95-3.14m40.57 3.14V29.91h-3.32v16.13a1.7 1.7 0 0 0 .5 1.2 1.68 1.68 0 0 0 1.2.52h15.09l1.97-3.15H98.95m-54.86-2.64c1.54 0 3.03-.64 4.12-1.77a6.14 6.14 0 0 0 0-8.52 5.74 5.74 0 0 0-4.12-1.77h-14.5v17.83h3.3V33.07h11c.74 0 1.45.3 1.97.84a2.94 2.94 0 0 1 0 4.08c-.52.54-1.23.85-1.97.85h-9.35l9.9 8.9h4.8l-6.64-5.77h1.49ZM9.2 47.74h10.02a8.5 8.5 0 0 0 5.96-2.69 9.08 9.08 0 0 0 2.44-6.22c0-2.33-.87-4.56-2.44-6.22a8.5 8.5 0 0 0-5.96-2.7H9.2a8.37 8.37 0 0 0-6.24 2.53 8.93 8.93 0 0 0-2.6 6.39 9.18 9.18 0 0 0 2.6 6.39 8.6 8.6 0 0 0 6.24 2.52M19 44.6H9.42a5.5 5.5 0 0 1-3.83-1.75 5.88 5.88 0 0 1 0-8.03 5.5 5.5 0 0 1 3.83-1.75H19a5.42 5.42 0 0 1 4.06 1.62 5.78 5.78 0 0 1 1.7 4.14 5.94 5.94 0 0 1-1.7 4.15A5.56 5.56 0 0 1 19 44.6m62.95 3.14h10.23l1.94-3.14H82.18a5.42 5.42 0 0 1-4.07-1.62 5.78 5.78 0 0 1-1.7-4.15 5.94 5.94 0 0 1 1.7-4.14 5.56 5.56 0 0 1 4.07-1.62h9.72l1.96-3.15H81.95a8.37 8.37 0 0 0-6.24 2.52 8.93 8.93 0 0 0-2.6 6.39 9.18 9.18 0 0 0 2.6 6.39 8.6 8.6 0 0 0 6.24 2.52m40.54-3.14c-1.21 0-2.4-.4-3.37-1.16a5.78 5.78 0 0 1-2-3.04h14.17l1.95-3.14h-16.12a5.77 5.77 0 0 1 2-3.03 5.46 5.46 0 0 1 3.37-1.17h9.73l1.94-3.15h-11.9a8.5 8.5 0 0 0-5.95 2.69 9.08 9.08 0 0 0-2.44 6.22c0 2.33.88 4.56 2.44 6.23a8.5 8.5 0 0 0 5.95 2.69h10.23l1.95-3.14h-11.95"/></g><g clip-path="url(#b)"><path fill="url(#c)" d="m266.35 24.42-10.63 3.43-9.26 4.03-2.58.68a92.8 92.8 0 0 1-4.27 3.66 17.5 17.5 0 0 0-2.12 2.05 9.05 9.05 0 0 0-1.55 2.6 4.25 4.25 0 0 0 .63 3.92c1.08 1.59 3.27 3.2 5.8 4.3 1.3.56 3.48 1.26 5.12 1.68 2.72.68 8 1.43 10.9 1.53.57.03 1.36.03 1.39 0 .05-.05.53-.88 1.03-1.95a49.15 49.15 0 0 0 3.77-9.82c.42-1.74.74-4.05.98-6.8a34.22 34.22 0 0 0-.37-7.92c-.03-.17-.06-.32-.03-.32.02-.03.13-.05 1.45-.42l-.26-.65Zm-2.43 1.4c.1 0 .34 2.45.42 3.98.03.31 0 .55 0 .55a46.47 46.47 0 0 1-4.85-3.02c-.08-.05-.08-.05.58-.28 1.1-.4 3.74-1.22 3.85-1.22Zm-5.43 1.77c.08 0 .26.1.7.37a52.34 52.34 0 0 0 4.89 2.67c.29.13.31.08-.34.55a33.88 33.88 0 0 1-6.25 3.22c-.03 0 .02-.2.1-.44.53-1.98.84-3.98.87-5.56-.05-.8-.05-.8.03-.8Zm-1.11.42c.05.05.03 1.82-.05 2.31a19.26 19.26 0 0 1-.93 4c-.02.05-1.13-1.01-1.5-1.43-.63-.7-1.1-1.43-1.48-2.13a7.78 7.78 0 0 1-.44-1.06c.13-.1 4.37-1.72 4.4-1.7Zm-5.25 2.03a9.97 9.97 0 0 0 1.48 2.62 15.15 15.15 0 0 0 2.24 2.31c.05.05.05.05-1.24.52a99.59 99.59 0 0 1-5.06 1.74c-.45.16-.9.29-1.35.44-.08.03-.05-.02.16-.33a41.73 41.73 0 0 0 3.45-7.1c.03-.1.08-.15.19-.2.05.02.1 0 .13 0Zm-1.6.65c.02.02-.4.85-.8 1.63a65.98 65.98 0 0 1-3.16 5.38c-.06.05-.06.05-.19-.2a6.5 6.5 0 0 1-.55-4.2c.1-.51.1-.51.34-.61.98-.5 4.3-2.03 4.35-2Zm13.84.57v.33c0 1.77-.19 4.19-.48 5.95-.05.32-.08.58-.1.58l-.5-.13a19.6 19.6 0 0 1-3.7-1.56c-.79-.42-1.92-1.12-1.87-1.15l.74-.39c1.58-.8 3.09-1.68 4.4-2.54.5-.31 1.24-.86 1.4-.99l.1-.1Zm-19.91 2.34c.02 0 .02.05-.03.33-.03.21-.08.6-.08.86-.05 1.14.13 2 .71 3.17l.3.6c-.06.05-5.39 1.58-7.05 2.02-.5.13-.92.26-.97.26-.06.03-.06 0-.06-.13.19-1.16 1.09-2.67 2.35-3.97.84-.86 1.5-1.35 2.64-2 .82-.42 2.06-1.12 2.19-1.14-.03 0-.03 0 0 0Zm12.52 2.2s.21.1.43.24c1.71.99 4.11 1.9 6.14 2.36l.19.05-.27.13c-1.08.6-4.59 2.03-8.17 3.36-.53.18-1.03.39-1.14.41-.1.05-.18.05-.18.05l.31-.62c1-1.84 2-4.1 2.54-5.66l.15-.32Zm-1.26.42-.13.36a51.41 51.41 0 0 1-2.8 5.54c-.29.52-.55.93-.55.93l-.53-.3a15.83 15.83 0 0 1-4.2-3.54l-.13-.18.74-.21a53.32 53.32 0 0 0 7.6-2.6Zm7.94 2.73c0 .18-.4 1.82-.74 2.99-.3.98-.53 1.76-.98 3.14-.18.6-.37 1.1-.37 1.1s-.05 0-.1-.03a32.44 32.44 0 0 1-6.54-1.82c-.56-.24-1.37-.58-1.43-.63-.02-.02.48-.23 1.08-.5 3.67-1.58 7.44-3.34 8.76-4.12.16-.08.29-.13.32-.13Zm-18.33.62c.02.03-1 1.46-2.43 3.43l-1.3 1.8-.73 1.06-.34.52-.37-.31c-.42-.34-1.16-1.1-1.5-1.51a6.63 6.63 0 0 1-1.35-2.55c-.08-.39-.08-.57 0-.6.13-.02 2.27-.51 4.27-.98 1.11-.26 2.4-.55 2.88-.68l.87-.18Zm1.03.4.26.28a15.44 15.44 0 0 0 3.77 3.04c.27.13.45.26.42.28-.05.05-4.96 1.77-7.25 2.52l-2.35.8-.15-.1-.14-.1.24-.34a78.18 78.18 0 0 1 3.77-4.7l1.43-1.69Zm6.4 4.51.8.29c1.05.39 1.87.62 2.98.9 1.37.35 3.34.68 4.5.79.19.02.27.02.24.05l-2.1.7a510.1 510.1 0 0 1-10.27 2.96c-.07.03-.34-.05-.34-.08a50.02 50.02 0 0 0 3.7-4.83c.26-.47.5-.78.5-.78Zm-1.42.03s-.55.9-1.56 2.47l-1.08 1.66c-.16.26-.4.65-.52.88l-.24.42-.13-.03c-.3-.08-2.32-.78-2.85-.98-.66-.26-1.35-.58-1.87-.86a8.32 8.32 0 0 1-1.38-.86c.03 0 1.11-.31 2.46-.65 3.5-.93 5.46-1.48 6.75-1.9.2-.1.42-.15.42-.15Zm10 2.31c.05.08-1.27 3.64-1.74 4.76-.11.26-.14.3-.22.3-.13 0-2.03-.25-3.16-.43-2-.32-5.35-.89-6.2-1.07l-.18-.05 1.18-.26c2.59-.57 3.8-.88 5.07-1.25a35.03 35.03 0 0 0 4.72-1.8c.26-.1.47-.2.52-.2Z"/><path fill="url(#d)" d="M255.37.03c-.18-.03-3.03.98-4.88 1.71-2.48.99-4.4 1.95-5.59 2.78-.44.31-1 .86-1.08 1.07a.92.92 0 0 0-.05.26l1.08 1.01 2.56.8 6.1 1.07 6.95 1.17.08-.6h-.05l-.92-.13-.19-.31c-.95-1.64-2-3.69-2.6-5.07A23.94 23.94 0 0 1 255.6.6c-.13-.54-.16-.56-.24-.56Zm-.13.39c.03 0 .05.23.08.49.13 1.12.4 2.18.8 3.33.28.88.28.83-.06.72-.82-.23-4.49-.85-7.15-1.22-.42-.05-.79-.1-.79-.13a40.31 40.31 0 0 1 2.77-1.43c1.1-.5 4.14-1.71 4.35-1.76Zm-7.75 3.56.31.1a47.8 47.8 0 0 0 8.87 1.61s-.22.13-.5.26c-1.14.57-2.4 1.25-3.28 1.8l-.52.28-.37-.05-.32-.06-.79-.77-2.95-2.81-.45-.36Zm-.32.23 1.14 1.4c.6.78 1.23 1.5 1.37 1.7.13.15.23.3.23.3a37.8 37.8 0 0 1-2.47-.46c-.88-.21-1.24-.29-1.77-.47l-.45-.13v-.1c0-.53.69-1.33 1.85-2.14l.1-.1Zm9.63 1.9a29.93 29.93 0 0 0 1.5 2.78c.05.1.19.1-.95-.08-2.72-.44-3.59-.57-3.59-.6l.19-.13a16.85 16.85 0 0 0 2.85-1.97c-.03 0 0 0 0 0Z"/><path fill="url(#e)" d="M243.88 5.46s-.19.28 0 .7c.1.26.42.57.76.88 0 0 3.59 3.43 4.01 3.92a10.93 10.93 0 0 1 2.93 7.51 11.8 11.8 0 0 1-1.27 5.7c-1.66 3.58-5.2 7.55-10.63 11.95l.8-.26c.5-.4 1.2-.78 2.84-1.67a100.7 100.7 0 0 1 13.27-5.84c7.51-2.78 19.88-6.06 26.92-7.12l.74-.1-.1-.19a22.54 22.54 0 0 0-1.61-2.23 18.9 18.9 0 0 0-5.7-4.68c-3.14-1.74-7.22-3.1-12.4-4.1-.97-.19-3.1-.55-4.85-.81-3.69-.57-6.06-.96-8.67-1.4-.95-.16-2.35-.4-3.27-.6-.48-.1-1.4-.31-2.14-.57-.63-.18-1.45-.42-1.63-1.1Zm2.08 2 .32.1c.31.1.7.23 1.16.34l1.05.28.9.24a62.33 62.33 0 0 1 1.32 4.29s-.1-.13-.21-.32a17.02 17.02 0 0 0-4.14-4.62l-.4-.31Zm3.96 1.06.42.08c1.37.31 3.82.75 5.38 1.01.26.06.47.08.47.1 0 .03-.1.09-.2.14a15.88 15.88 0 0 0-3.96 2.78l-.43.41s-.05-.13-.08-.3a24.9 24.9 0 0 0-1.6-4.22c-.03 0-.03 0 0 0Zm6.93 1.3c.05.03.13.29.3.88.28 1.15.41 2.45.39 3.64-.03.34-.03.65-.06.68l-.02.08-.42-.13a297.42 297.42 0 0 0-4.7-1.38c0-.05 1-1.04 1.43-1.4.81-.7 3.03-2.4 3.08-2.37Zm.55.08a133.95 133.95 0 0 1 7.68 1.43c.05.02-.13.1-.66.34a37.5 37.5 0 0 0-5.27 2.8c-.43.26-.77.5-.77.5s-.03-.24-.03-.5c0-1.5-.31-3.01-.87-4.31-.02-.13-.08-.23-.08-.26Zm8.55 1.66c.03.03-.08.68-.19 1.04a20.05 20.05 0 0 1-2.37 5.12 25.07 25.07 0 0 0-3.61-1.77c-.32-.13-.6-.23-.6-.26a46 46 0 0 1 3.9-2.54 40.16 40.16 0 0 1 2.87-1.59Zm.6.1c.08 0 1.53.4 2.3.63a41.8 41.8 0 0 1 5.46 1.97l.58.26-.42.1a59.5 59.5 0 0 0-9.26 2.84l-.45.18c-.02 0 .06-.18.16-.41.87-1.8 1.43-3.67 1.56-5.28l.08-.28ZM252 14.97a31.34 31.34 0 0 1 4.59 1.35l-.48.42a50.81 50.81 0 0 0-3.27 2.94c-.37.34-.66.62-.68.62-.03 0-.03-.05-.03-.1.19-1.33.13-3.04-.1-4.78 0-.26-.03-.44-.03-.44Zm23.47.03c.03.03-.53.83-.84 1.3-.48.68-1.2 1.59-2.8 3.56l-2.11 2.63c-.32.38-.58.72-.6.72l-.24-.3a16.58 16.58 0 0 0-3.85-4.01c-.08-.05-.16-.13-.16-.13a78.44 78.44 0 0 1 10.6-3.77Zm.63.16a26.78 26.78 0 0 1 7.28 5.72l-.79.05c-3.38.26-7.7.96-11.87 1.94l-.55.13c-.03 0 .29-.3.68-.67a20.2 20.2 0 0 0 5.25-7.17c-.02 0-.02 0 0 0Zm-17.9 1.8c.1.02 1.16.51 1.95.87l1.87.97-.84.44a68.92 68.92 0 0 0-4.88 2.67c-.03 0-.03-.02.18-.41.71-1.3 1.3-2.86 1.64-4.37.02-.1.05-.18.08-.18Zm-1.03.2c.02.02-.24.99-.42 1.53-.32 1.02-.9 2.26-1.43 3.22l-.42.73-.21.31-.45-.41a6.3 6.3 0 0 0-1.5-1.1c-.21-.1-.4-.2-.4-.23 0-.05 1.37-1.3 2.43-2.18a36.7 36.7 0 0 1 2.4-1.87Zm6.38 2.57.4.26a29.96 29.96 0 0 1 4.3 3.38l.1.1-.66.18a124.76 124.76 0 0 0-10.55 3.33c-.05 0-.08.05.74-.7 2.1-1.92 4-4.05 5.4-6.1l.27-.45Zm-1.69.42c.03.02-1.08 1.53-1.74 2.41a111.21 111.21 0 0 1-3.9 4.73c-.03 0-.03-.1-.03-.28 0-.97-.23-1.98-.68-2.86-.19-.37-.22-.44-.19-.5a71.27 71.27 0 0 1 6.54-3.5Zm-10.15 2.44c.03 0 .21.1.42.2.5.3.98.6 1.37.92.03.02-.18.18-.47.39-.77.54-1.93 1.4-2.59 1.92-.7.54-.73.57-.66.44.53-.8.8-1.25 1.09-1.82a18.62 18.62 0 0 0 .84-2.05Zm2.72 2.1c.05 0 .07.06.31.4.45.67.82 1.58.9 2.3l.03.16-1.11.42c-1.98.75-3.8 1.5-5.01 2.05l-1.35.62c-.4.21-.71.34-.71.34l.55-.41a32.53 32.53 0 0 0 6.39-5.88Zm-1.24.29c.02.03-.9 1.06-1.5 1.69a27.29 27.29 0 0 1-5 3.97l-.47.32c-.05.02.03-.06.85-.94.53-.57.92-1.04 1.4-1.61.31-.4.36-.44.79-.75 1.16-.89 3.87-2.7 3.93-2.68Z"/><path fill="#231F1F" d="M218.38 57.76c-.16 0-.3.03-.45.03-3 .15-5.01 1.45-6.2 4-1 2.28-.9 5.3 0 7.58 1.06 2.26 2.77 3.46 5.62 3.9.6.1 1 .42 2.19 1.77l1.45 1.66h2.6L221.87 75a17.99 17.99 0 0 1-1.74-1.85c0-.08.37-.23.81-.36 1.48-.44 2.7-1.56 3.54-3.28.68-1.37.79-1.79.9-3.5.26-5.1-2.46-8.27-7-8.24Zm2.29 13.3c-1.27.6-3.11.73-4.32.29a5.54 5.54 0 0 1-3.01-3.17c-.6-1.59-.53-4.5.18-5.8 1.11-2.07 2.59-3.04 4.72-3.04 3.17 0 4.99 1.93 5.22 5.51.19 3.02-.84 5.28-2.79 6.21Zm45.12-8.96c-1.1 0-1.92.44-2.5 1.3l-.45.67v-1.76h-1.9v10.62h1.9v-3.4c0-3.12.02-3.48.47-4.31.6-1.17 1.66-1.74 2.67-1.48l.68.18v-1.85l-.87.03Zm-11.13-.1c-.37 0-.76.05-1.16.12-2.53.65-3.95 3.04-3.87 5.51 0 2.06.4 3.1 1.42 4.19 2.06 1.66 3.93 1.79 6.46.9l.9-.38v-1.67l-.9.47c-2.03.88-3.59.88-4.82-.16a4.72 4.72 0 0 1-1.3-2.8h7.65v-1.43c0-2.94-1.8-4.78-4.38-4.76Zm-3.08 4.67s.29-1.82 1.32-2.54c.5-.34 1.08-.52 1.66-.52.58 0 1.13.18 1.6.54.95.73 1.14 2.52 1.14 2.52h-5.72Zm-45.73-1.92c-2.06-1.22-2.98-2.1-2.85-3.14.32-2.89 3.93-2.5 5.94-1.4l.02-1.96s-1.1-.46-2.69-.49c-2.43-.03-4 .75-4.75 2.36-1.08 2.37-.13 4.16 3.35 6.14 1.95 1.11 2.82 2.07 2.82 3.14 0 2.18-2.66 2.94-5.43 1.58a23.2 23.2 0 0 0-1.08-.51c-.1.62-.05 2.1-.05 2.1s.84.34 2.1.6c3.17.62 6.02-.83 6.31-3.2.21-2.23-.6-3.4-3.7-5.22Zm76.74-2.76c-.37 0-.76.06-1.16.13-2.53.65-3.96 3.04-3.88 5.51 0 2.06.4 3.1 1.43 4.16 2.05 1.66 3.93 1.82 6.48.91l.9-.39v-1.66l-.9.46c-2.05.89-3.58.89-4.82-.15a4.64 4.64 0 0 1-1.3-2.8h7.63v-1.44c0-2.93-1.8-4.78-4.38-4.73Zm-3.11 4.66s.29-1.82 1.32-2.55c.5-.36 1.08-.52 1.63-.52.56 0 1.13.18 1.61.55.95.72 1.13 2.52 1.13 2.52h-5.7Zm-34.76-1.88c-2.06-1.22-2.95-2.1-2.85-3.14.32-2.88 3.93-2.5 5.94-1.4l.02-1.95s-1.1-.47-2.69-.5c-2.42-.02-4 .76-4.74 2.37-1.09 2.36-.11 4.16 3.34 6.13 1.96 1.12 2.8 2.08 2.8 3.12 0 2.18-2.66 2.96-5.43 1.58-.56-.28-1.06-.51-1.08-.51-.1.62-.06 2.1-.06 2.1s.85.34 2.11.6c3.17.62 6.02-.83 6.3-3.2.24-2.2-.57-3.38-3.66-5.2Zm49-2.7a2.8 2.8 0 0 0-2.5 1.3l-.46.68v-1.77h-1.9v10.63h1.9v-3.38c0-3.12.03-3.48.48-4.31.6-1.17 1.66-1.74 2.66-1.46l.69.18V62.1l-.87-.03Zm-64.08 2.65v-6.78h-1.9v15h8.04v-1.77h-6.12l-.02-6.45Zm44.22 2.1-1.58 4.04-1.5-4.06-1.53-4.5h-1.96c1.27 3.54 2.64 7.15 4.04 10.63.6.03 1.21 0 1.82 0l2.14-5.27 2.16-5.38h-1.88c-.02.03-.84 2.16-1.7 4.55Zm-39.8-12.96c.32 0 .56-.1.77-.3a1 1 0 0 0 .32-.76 1 1 0 0 0-.32-.76 1.1 1.1 0 0 0-.76-.28c-.32 0-.58.1-.77.3-.2.22-.31.48-.31.76 0 .31.1.57.31.76.19.18.45.28.77.28Zm-.68-1.74a.9.9 0 0 1 .69-.26.94.94 0 0 1 .97.94.94.94 0 0 1-.97.93.94.94 0 0 1-.98-.93c.03-.26.1-.5.3-.68Zm.45.78h.13c.08 0 .19.08.24.23l.16.34h.23l-.18-.36c-.08-.16-.16-.24-.24-.26a.5.5 0 0 0 .27-.13c.05-.05.07-.16.07-.23 0-.1-.02-.19-.1-.26-.08-.08-.21-.1-.4-.1h-.4v1.34h.2l.02-.57Zm0-.62h.18c.14 0 .22.02.27.05.05.03.05.08.05.18 0 .16-.1.23-.29.23h-.21v-.46Zm-31.57.5-.02-1.05c.05.24.1.42.16.55l1.84 4.02h.32l1.84-4.07c.06-.1.1-.29.16-.52h.03c-.03.41-.06.75-.06 1.03v3.56h.64V51h-.8l-1.7 3.72c-.06.16-.17.36-.27.65h-.03c-.02-.16-.13-.36-.24-.62l-1.66-3.72h-.84v5.3h.6l.03-3.56Zm6.25.02h.56v3.3h-.56v-3.3Zm.27-1.22a.4.4 0 0 0 .29-.1c.08-.09.13-.16.13-.3 0-.1-.03-.2-.13-.28a.4.4 0 0 0-.3-.1.4.4 0 0 0-.42.39c0 .13.03.2.14.28.07.08.18.1.29.1Zm4.14 4.57v-.57c-.3.2-.61.33-.95.33-.4 0-.72-.13-.95-.38-.24-.26-.37-.6-.37-1.04 0-.47.13-.84.37-1.1.23-.26.58-.39.95-.39.31 0 .63.1.92.3v-.66a1.97 1.97 0 0 0-.9-.18c-.6 0-1.1.18-1.45.57-.34.36-.52.88-.52 1.5 0 .55.15 1.02.5 1.36.34.36.79.54 1.32.54.44-.02.79-.1 1.08-.28Zm1.55-1.74c0-.44.1-.78.3-1.04.18-.2.36-.34.63-.34.2 0 .36.03.47.13v-.62a1.24 1.24 0 0 0-.37-.05.93.93 0 0 0-.58.2c-.18.16-.34.37-.42.65h-.03v-.78h-.6v3.8h.6V54.4Zm3.54 2c.58 0 1.05-.18 1.4-.55.34-.36.52-.85.52-1.45 0-.63-.16-1.1-.47-1.46-.32-.36-.77-.52-1.35-.52-.58 0-1.05.19-1.4.5-.37.36-.55.88-.55 1.53 0 .57.16 1.04.5 1.4.32.37.77.55 1.35.55Zm-.87-3.07c.23-.23.55-.36.92-.36.4 0 .69.13.92.36.21.26.34.63.34 1.1 0 .46-.1.83-.31 1.06-.21.26-.53.39-.92.39-.4 0-.72-.13-.95-.4-.24-.25-.35-.59-.35-1.06-.02-.46.08-.83.35-1.09Zm5.46 2.76a1 1 0 0 0 .07-1.48 1.95 1.95 0 0 0-.7-.42 3.3 3.3 0 0 1-.59-.31.48.48 0 0 1-.16-.4c0-.15.06-.28.19-.36.13-.1.29-.15.5-.15.34 0 .6.08.87.26v-.6a1.72 1.72 0 0 0-.82-.18c-.4 0-.74.1-.97.31a.93.93 0 0 0-.37.78c0 .29.08.52.23.68.14.15.37.28.69.41.32.13.53.26.63.37.1.1.16.2.16.36 0 .36-.24.54-.74.54-.37 0-.7-.13-1-.36v.65c.26.16.58.23.95.23.45-.02.82-.13 1.06-.33Zm2.92-3.64c-.58 0-1.05.18-1.4.5-.37.36-.55.88-.55 1.53 0 .57.16 1.04.5 1.4.34.36.8.54 1.37.54.58 0 1.06-.18 1.4-.54.34-.36.53-.86.53-1.46 0-.62-.16-1.09-.48-1.45-.34-.36-.79-.52-1.37-.52Zm1.22 1.97c0 .47-.11.84-.32 1.07-.21.26-.53.39-.92.39-.4 0-.72-.13-.95-.4-.24-.25-.35-.59-.35-1.06 0-.49.14-.85.37-1.11.24-.24.56-.37.93-.37s.68.13.9.37c.23.26.34.62.34 1.11Zm1.66 1.9h.6v-3.27h.9v-.52h-.9v-.57c0-.52.21-.81.64-.81.15 0 .29.03.4.1v-.54c-.11-.05-.27-.05-.46-.05-.34 0-.6.1-.81.3-.27.24-.4.55-.4 1v.62h-.66v.52h.66l.03 3.22Zm2.53-1.04c0 .73.34 1.12 1 1.12.24 0 .42-.03.58-.13v-.52a.66.66 0 0 1-.4.13c-.2 0-.34-.05-.44-.16-.08-.1-.13-.28-.13-.54v-2.13h.97v-.52h-.97v-1.12c-.22.08-.43.13-.61.18v.91h-.66v.52h.66v2.26Zm66.06 7a1.1 1.1 0 0 0-.77-.3c-.31 0-.58.1-.76.32-.21.2-.32.46-.32.75 0 .31.1.55.32.75.21.19.47.29.76.29.32 0 .56-.1.77-.31a1 1 0 0 0 .31-.76.88.88 0 0 0-.31-.75Zm-.08 1.42a.9.9 0 0 1-.69.26.94.94 0 0 1-.97-.94c0-.26.08-.49.26-.67a.9.9 0 0 1 .69-.26.94.94 0 0 1 .97.93c0 .26-.08.5-.26.68Zm-.55-.62c.1-.03.18-.08.26-.13.05-.06.08-.16.08-.24 0-.1-.03-.18-.1-.26-.09-.08-.22-.1-.4-.1h-.4v1.35h.19v-.57h.13c.08 0 .16.08.24.23l.15.34h.24l-.18-.36c-.08-.16-.16-.24-.21-.26Zm-.14-.13h-.2v-.45h.18c.13 0 .2.03.26.06.05.02.05.07.05.18-.02.15-.1.2-.29.2Zm-34.36-10.58h.19v-1.35h.44v-.18h-1.08v.18h.45v1.35Zm1.03-1.01v-.31c0 .07.03.13.05.15l.53 1.17h.08l.53-1.17c.02-.02.02-.08.05-.15v1.32h.18v-1.53h-.2l-.48 1.06c0 .03-.05.1-.08.21h-.03c0-.05-.02-.1-.08-.18l-.47-1.07h-.24v1.54h.19l-.03-1.04Z"/></g><path fill="#231F20" d="M400.03 39.32h-5.79V33.5h6.1c2.24 0 3.36.99 3.36 2.96 0 1.9-1.23 2.86-3.67 2.86m4.16-5.88c-.8-.71-1.9-1.07-3.33-1.07l-8.29.05v13.9h1.67l-.01-5.91h6.17a5.7 5.7 0 0 0 3.65-1.07c.89-.7 1.33-1.7 1.33-2.95 0-1.26-.4-2.24-1.19-2.95ZM415 43.4c-.16.45-.43.86-.79 1.18-.75.73-1.89 1.1-3.42 1.1-1.4 0-2.46-.36-3.2-1.07a3.76 3.76 0 0 1-1.11-2.85c0-.62.1-1.16.29-1.64.2-.48.48-.89.85-1.22a4.54 4.54 0 0 1 3.17-1.05c2.98 0 4.47 1.3 4.47 3.91 0 .62-.09 1.17-.25 1.64m.3-5.14c-1.02-.92-2.52-1.4-4.52-1.4-1.89 0-3.34.48-4.37 1.43a4.5 4.5 0 0 0-1.4 3.47 4.55 4.55 0 0 0 3.29 4.53c.7.22 1.53.33 2.48.33 1.98 0 3.49-.46 4.53-1.38.93-.84 1.4-2 1.4-3.48 0-1.5-.47-2.66-1.4-3.5Zm12.63 5.54c0 1.87-1.68 2.8-5.04 2.8-1.02 0-1.89-.06-2.6-.19a4.44 4.44 0 0 1-1.7-.65 2.5 2.5 0 0 1-.81-.9c-.2-.36-.33-.82-.39-1.39l1.56-.01c0 .74.28 1.28.82 1.63.6.41 1.63.62 3.12.62 2.35 0 3.53-.58 3.53-1.76 0-.69-.4-1.16-1.19-1.42-.16-.05-1.1-.18-2.84-.4-1.73-.2-2.82-.4-3.25-.57-.93-.37-1.4-1.03-1.4-1.99 0-.93.42-1.63 1.25-2.09.41-.19.93-.33 1.54-.44.61-.1 1.32-.16 2.13-.16 3.24 0 4.85 1.02 4.85 3.04h-1.48c0-1.42-1.14-2.14-3.41-2.14-1.16 0-2.02.15-2.59.43a1.4 1.4 0 0 0-.85 1.33c0 .56.38.97 1.15 1.22.45.12 1.48.27 3.1.44 1.44.13 2.43.32 2.97.55 1.03.4 1.54 1.08 1.54 2.03v.02Zm6.14 2.54-.64.09-.4.03a4.17 4.17 0 0 1-2.2-.45c-.45-.3-.67-.8-.67-1.54v-6.36h-1.85v-.93h1.84l.02-3h1.42v3h2.48v.95l-2.48-.02v6.18c0 .46.12.78.37.95.24.17.68.26 1.3.26l.3-.01.5-.11.01.94v.02Zm9.86-2.11c-.4.32-.84.56-1.33.73-.5.17-1.08.25-1.72.25-2.99 0-4.47-1.23-4.47-3.69 0-1.14.38-2.04 1.14-2.68a4.83 4.83 0 0 1 3.22-.98c1.4 0 2.46.33 3.18.98a3.36 3.36 0 0 1 1.08 2.62c0 1.2-.37 2.12-1.1 2.77m2.53-7.05h-1.43l-.01 1.57a9.55 9.55 0 0 0-1.35-1.2 6.4 6.4 0 0 0-3.1-.66c-1.85 0-3.27.42-4.24 1.27-.93.77-1.4 1.9-1.4 3.37 0 .73.12 1.38.36 1.94.23.57.57 1.06 1.02 1.46.98.82 2.37 1.22 4.15 1.22 2.15 0 3.67-.58 4.57-1.76v1.63c0 1.04-.32 1.84-.98 2.4-.65.57-1.72.85-3.22.85-1.4 0-2.4-.2-3-.58-.46-.3-.76-.81-.94-1.55h-1.46c.16 1.03.6 1.77 1.3 2.23.81.53 2.2.79 4.14.79 3.72 0 5.58-1.38 5.58-4.15V37.2Zm7.7.93c-.42-.07-.82-.1-1.2-.1-2.33 0-3.5 1.28-3.5 3.84v4.47h-1.41l-.02-9.13 1.43.01v1.63h.07c.24-.64.62-1.13 1.14-1.46a5.3 5.3 0 0 1 2.54-.48h.96v1.22Zm1.33 3.06a4.08 4.08 0 0 1 1.21-2.4c.41-.33.87-.58 1.4-.75.5-.16 1.09-.24 1.74-.24 1.27 0 2.3.34 3.1 1.04.81.7 1.2 1.48 1.2 2.35h-8.65m8.8-2.81c-.5-.5-1.12-.87-1.86-1.11a8.38 8.38 0 0 0-2.6-.36c-1.84 0-3.27.43-4.29 1.28a4.33 4.33 0 0 0-1.53 3.5c0 1.48.5 2.64 1.47 3.52 1.06.95 2.55 1.43 4.47 1.43.77 0 1.48-.09 2.14-.26a5.87 5.87 0 0 0 1.7-.74 3.98 3.98 0 0 0 1.64-2.27h-1.54c-.53 1.56-1.84 2.34-3.95 2.34-1.48 0-2.63-.38-3.42-1.15a3.35 3.35 0 0 1-1.03-2.54h10.15a4.8 4.8 0 0 0-1.36-3.64Z"/><path fill="#367FAF" d="M480.71 42.6c0 2.7-2.19 4.06-6.57 4.06-2.62 0-4.53-.46-5.74-1.4-.99-.76-1.48-1.93-1.48-3.5h1.76c0 2.53 1.82 3.8 5.46 3.8 1.75 0 3.01-.27 3.8-.79.65-.45.98-1.17.98-2.14 0-.97-.45-1.65-1.34-2.04-.51-.2-1.75-.47-3.73-.79-2.49-.38-4.1-.75-4.83-1.13-1.07-.56-1.6-1.5-1.6-2.84 0-1.24.45-2.17 1.36-2.77.98-.67 2.66-1 5.03-1 4.29 0 6.43 1.42 6.43 4.26h-1.77c0-2.13-1.6-3.2-4.78-3.2-1.6 0-2.77.22-3.5.65a2.26 2.26 0 0 0-1.05 2.02c0 .93.44 1.58 1.34 1.96.48.22 1.89.52 4.22.91 2.2.33 3.68.71 4.44 1.15 1.05.54 1.57 1.47 1.57 2.79Zm14.32 1.38c-.66.53-1.4.92-2.23 1.19-.83.26-1.76.4-2.79.4-2.1 0-3.8-.57-5.08-1.7a5.69 5.69 0 0 1-1.94-4.51 5.7 5.7 0 0 1 1.92-4.58c1.28-1.1 2.98-1.64 5.1-1.64 2.15 0 3.83.57 5.06 1.71a5.2 5.2 0 0 1 1.44 1.96c.31.74.46 1.6.46 2.55 0 1.95-.65 3.49-1.94 4.62m.93.92a6.06 6.06 0 0 0 2.04-2.35c.44-.92.66-1.98.66-3.19 0-2.16-.72-3.88-2.16-5.2a7.26 7.26 0 0 0-2.78-1.59 12.22 12.22 0 0 0-3.73-.52c-2.71 0-4.84.66-6.38 1.97a6.64 6.64 0 0 0-2.32 5.34c0 2.2.78 3.96 2.34 5.3 1.56 1.35 3.7 2.02 6.4 2.02 1.05 0 1.98-.07 2.76-.22a6.79 6.79 0 0 0 2-.65l2.61 1.8 1.09-1-2.52-1.7Zm15.9 1.43H499.8V32.4l1.65-.03v12.79h10.4l-.01 1.16Z"/><path fill="#231F20" d="M381.14 43.99c.17-1.18.12-1.36 1.16-1.17l.27.02c.8.04 1.84-.1 2.45-.35 1.33-.51 2.1-1.38.8-1.15-2.97.52-3.17-.34-3.17-.34 3.14-3.94 4.45-8.95 3.32-10.17-3.1-3.34-8.44-1.76-8.54-1.72h-.02c-.6-.1-1.25-.16-1.99-.17a5.54 5.54 0 0 0-3.14.8s-9.54-3.34-9.1 4.18c.1 1.6 2.71 12.1 5.83 8.92 1.13-1.16 2.23-2.14 2.23-2.14a3.3 3.3 0 0 0 1.9.41l.04-.04c-.01.15 0 .29.02.45-.8.76-.56.9-2.17 1.17-1.62.29-.66.8-.04.92.75.16 2.5.39 3.68-1l-.05.15c.31.22.3 1.53.34 2.48.04.94.12 1.82.35 2.34.22.52.49 1.85 2.6 1.47 1.76-.32 3.1-.78 3.23-5.06"/><path stroke="#231F20" stroke-width="6.43" d="M381.14 43.99c.17-1.18.12-1.36 1.16-1.17l.27.02c.8.04 1.84-.1 2.45-.35 1.33-.51 2.1-1.38.8-1.15-2.97.52-3.17-.34-3.17-.34 3.14-3.94 4.45-8.95 3.32-10.17-3.1-3.34-8.44-1.76-8.54-1.72h-.02c-.6-.1-1.25-.16-1.99-.17a5.54 5.54 0 0 0-3.14.8s-9.54-3.34-9.1 4.18c.1 1.6 2.71 12.1 5.83 8.92 1.13-1.16 2.23-2.14 2.23-2.14a3.3 3.3 0 0 0 1.9.41l.04-.04c-.01.15 0 .29.02.45-.8.76-.56.9-2.17 1.17-1.62.29-.66.8-.04.92.75.16 2.5.39 3.68-1l-.05.15c.31.22.3 1.53.34 2.48.04.94.12 1.82.35 2.34.22.52.49 1.85 2.6 1.47 1.76-.32 3.1-.78 3.23-5.06"/><path fill="#417BA2" d="M385.83 41.34c-2.98.51-3.18-.34-3.18-.34 3.14-3.94 4.45-8.95 3.32-10.17-3.1-3.35-8.44-1.76-8.53-1.72h-.03c-.6-.1-1.25-.16-1.99-.17a5.54 5.54 0 0 0-3.14.8s-9.54-3.33-9.1 4.18c.1 1.6 2.71 12.1 5.83 8.92 1.13-1.16 2.23-2.14 2.23-2.14a3.3 3.3 0 0 0 1.89.41l.05-.04c-.01.15 0 .29.02.45-.8.76-.56.9-2.16 1.17-1.63.29-.67.8-.05.92.75.16 2.5.39 3.68-1l-.05.15c.32.22.54 1.39.5 2.45-.04 1.07-.06 1.8.19 2.37.25.57.5 1.85 2.6 1.47 1.76-.32 2.68-1.15 2.8-2.53.1-.98.3-.84.31-1.72l.16-.41c.2-1.33.03-1.76 1.12-1.56l.26.02c.8.03 1.85-.11 2.46-.35 1.32-.52 2.1-1.39.8-1.16Z"/><path stroke="#fff" stroke-linecap="round" stroke-linejoin="round" stroke-width="2.14" d="M374.8 42.1c-.08 2.48.02 4.97.3 5.58.3.6.9 1.79 3.02 1.4 1.76-.32 2.4-.94 2.68-2.3.2-1 .6-3.8.65-4.37m-9.18-12.73s-9.55-3.3-9.1 4.21c.1 1.6 2.7 12.1 5.82 8.92a47.6 47.6 0 0 1 2.17-2.07m6.28-11.67c-.33.1 5.3-1.74 8.51 1.73 1.14 1.22-.18 6.23-3.31 10.17"/><path stroke="#fff" stroke-linecap="round" stroke-linejoin="bevel" stroke-width="2.14" d="M382.63 40.97s.2.85 3.18.33c1.3-.22.52.64-.8 1.16-1.09.43-3.52.54-3.56-.05-.1-1.52 1.28-1.06 1.18-1.44-.09-.34-.7-.68-1.12-1.52-.35-.73-4.9-6.35 1.26-5.51.23-.04-1.6-4.96-7.36-5.04-5.76-.07-5.57 6-5.57 6"/><path stroke="#fff" stroke-linejoin="round" stroke-width="2.14" d="M373.2 41.49c-.81.76-.57.9-2.18 1.17-1.62.29-.67.79-.05.92.76.16 2.5.39 3.68-1.01.36-.43 0-1.1-.5-1.28-.23-.08-.55-.19-.96.2Z"/><path stroke="#fff" stroke-linecap="round" stroke-linejoin="round" stroke-width="2.14" d="M373.14 41.48c-.08-.45.17-.98.44-1.6.41-.93 1.36-1.87.6-4.82-.56-2.2-4.33-.46-4.34-.16 0 .3.17 1.51-.06 2.93-.3 1.85 1.39 3.4 3.34 3.25"/><path fill="#fff" stroke="#fff" stroke-width=".71" d="M372.24 34.85c-.02.1.22.38.53.41.31.04.57-.17.6-.27 0-.1-.23-.22-.54-.26-.31-.03-.57.02-.6.12Z"/><path fill="#fff" stroke="#fff" stroke-width=".36" d="M381.66 34.64c.02.1-.22.38-.53.42-.3.03-.57-.18-.59-.28-.02-.1.22-.22.53-.25.31-.04.57.01.6.11Z"/><path stroke="#fff" stroke-linecap="round" stroke-linejoin="round" stroke-width="2.14" d="M382.77 33.94c.05.8-.2 1.34-.23 2.2-.05 1.24.7 2.65-.43 4.07"/><g clip-path="url(#f)"><path fill="red" d="M28.18 183.53h5.74v5.88h-5.74v-5.88Z"/><path fill="#FC0" d="M28.18 142.44h5.74v41.1h-5.74v-41.1Zm11.48 0h5.74v46.97h-5.74v-46.97Zm11.48 0h5.73v46.97h-5.73v-46.97Zm11.47 0h5.74v46.97h-5.74v-46.97Zm11.48 19.08h5.74v8.8h-5.74v-8.8Z"/></g><path fill="#00678C" fill-rule="evenodd" d="M192.7 183.59h3.44v-13.66l5.39 11.9c.6 1.44 1.48 1.97 3.18 1.97 1.7 0 2.52-.53 3.15-1.96l5.36-11.91v13.66h3.47v-13.66c0-1.33-.53-1.96-1.64-2.3-2.63-.8-4.38-.12-5.17 1.66l-5.28 11.78-5.1-11.78c-.76-1.78-2.54-2.46-5.2-1.67-1.08.35-1.61.98-1.61 2.3v13.67Zm26.86-11.12h3.48v7.51c-.03.43.13 1.38 2.02 1.4.98.03 7.48 0 7.53 0v-8.96h3.47v12.28c0 3.02-3.74 3.69-5.49 3.71h-10.92v-2.3h10.95c2.23-.24 1.96-1.36 1.96-1.73v-.9h-7.34c-3.43-.02-5.63-1.54-5.65-3.26v-7.75Zm74.53-8.7c-2.13-.05-3.77.16-5.15.75-.4.16-1.03.16-1.09.66.22.21.24.56.43.85a6.2 6.2 0 0 0 1.38 1.62c.55.42 1.11.85 1.7 1.22 1.03.63 2.2 1 3.2 1.64.59.37 1.17.85 1.75 1.25.3.21.48.56.85.69v-.08c-.18-.24-.24-.58-.42-.85l-.8-.77a12.57 12.57 0 0 0-2.76-2.68c-.85-.58-2.7-1.38-3.05-2.36l-.05-.05c.59-.05 1.27-.27 1.83-.42.9-.24 1.72-.2 2.65-.43.43-.1.85-.24 1.28-.37v-.24c-.48-.48-.83-1.11-1.33-1.56a35.3 35.3 0 0 0-4.38-3.26c-.82-.53-1.88-.88-2.75-1.33-.32-.16-.85-.24-1.04-.5-.48-.59-.74-1.36-1.09-2.05a67.23 67.23 0 0 1-2.17-4.61c-.48-1.04-.77-2.07-1.35-3.02-2.73-4.51-5.7-7.25-10.27-9.92-.98-.56-2.14-.8-3.38-1.1l-2-.1c-.42-.18-.84-.69-1.21-.93-1.52-.95-5.42-3.02-6.53-.29-.71 1.73 1.06 3.42 1.67 4.3.45.6 1.03 1.3 1.35 1.99.18.45.24.93.42 1.4.43 1.17.83 2.47 1.38 3.56.3.55.61 1.14.98 1.64.22.3.59.43.67.9-.38.53-.4 1.33-.61 2-.96 3-.59 6.7.76 8.9.43.67 1.43 2.13 2.79 1.57 1.2-.48.93-2 1.27-3.32.08-.31.03-.53.19-.74v.05l1.09 2.2c.82 1.3 2.25 2.66 3.44 3.56.64.48 1.14 1.3 1.94 1.6v-.09h-.05c-.16-.24-.4-.34-.62-.53-.47-.48-1-1.06-1.37-1.6a34.17 34.17 0 0 1-2.97-4.82c-.43-.82-.8-1.72-1.14-2.54-.16-.32-.16-.8-.43-.96-.4.58-.98 1.09-1.27 1.8-.5 1.14-.56 2.55-.74 4.01-.11.03-.06 0-.11.05-.85-.2-1.14-1.08-1.46-1.83-.8-1.88-.93-4.9-.24-7.08.19-.56.98-2.3.67-2.84-.16-.5-.7-.8-.99-1.19a10.7 10.7 0 0 1-.95-1.7c-.64-1.48-.95-3.13-1.64-4.61-.32-.69-.88-1.4-1.33-2.04-.5-.72-1.06-1.22-1.46-2.07-.13-.3-.32-.77-.1-1.09.05-.21.15-.29.37-.34.34-.3 1.32.08 1.67.23.98.4 1.8.77 2.62 1.33.37.27.77.77 1.25.9h.56c.85.19 1.8.06 2.6.3a17 17 0 0 1 3.81 1.82 23.53 23.53 0 0 1 8.28 9.07c.32.61.45 1.17.74 1.8.56 1.3 1.25 2.63 1.8 3.9.56 1.25 1.1 2.53 1.89 3.56.4.56 1.99.85 2.7 1.14.53.24 1.35.45 1.83.75.9.55 1.8 1.19 2.65 1.8.43.32 1.75.98 1.83 1.5Zm-27.05-23.04c-.37 0-.73.04-1.09.13v.05h.06c.2.43.58.72.85 1.1l.6 1.27.06-.06c.37-.26.56-.69.56-1.32-.16-.19-.19-.37-.32-.56-.16-.27-.5-.4-.72-.6v-.01Z" clip-rule="evenodd"/><path fill="#CE8B2C" fill-rule="evenodd" d="M238.71 183.59h9.97c1.17 0 2.28-.24 3.19-.67 1.5-.68 2.22-1.61 2.22-2.83v-2.55c0-.98-.82-1.9-2.46-2.54a8.69 8.69 0 0 0-2.95-.5h-4.19c-1.4 0-2.07-.43-2.25-1.36-.03-.1-.03-.21-.03-.32v-1.56c0-.08 0-.19.03-.3.18-.71.55-.9 1.78-1.03h10.21v-2.3h-9.7c-1.41 0-2.15.07-2.82.28-2.04.64-2.94 1.65-2.94 3.43v2.01c0 1.56 1.75 2.9 4.72 3.21.32.03.66.03 1 .03h3.59c.13 0 .26 0 .37.02 1.09.11 1.56.3 1.88.7.21.2.27.4.27.63v2.02c0 .23-.16.55-.48.82-.32.26-.82.45-1.49.47-.13 0-.2.03-.34.03h-9.58v2.3Zm36.97-4c0 2.35 1.78 3.68 5.33 3.94.35.03.67.06 1.01.06h9.02v-2.3h-9.1c-2.02 0-2.78-.51-2.78-1.73v-11.94h-3.49v11.96h.01Zm-19.39.1v-8.22c0-2.1 1.49-3.37 4.38-3.77.32-.02.64-.05.93-.05h6.57c.35 0 .64.03.99.05 2.89.4 4.34 1.67 4.34 3.77v8.22c0 1.7-.6 2.6-2.04 3.2l3.4 3.08h-4l-2.76-2.49-2.8.16h-3.7c-.68 0-1.36-.1-2.02-.26-2.2-.62-3.29-1.78-3.29-3.7Zm3.74-.19c0 .11.06.22.08.35.19.95 1.09 1.48 2.47 1.48h3.13l-2.86-2.6h4l2.52 2.29c.48-.27.77-.64.87-1.12.03-.1.03-.24.03-.34v-7.88c0-.1 0-.21-.03-.32-.18-.9-1.08-1.4-2.44-1.4h-5.22c-1.54 0-2.55.66-2.55 1.72v7.82Z" clip-rule="evenodd"/><g clip-path="url(#g)"><path fill="#185C37" d="m425.15 164.6-22.28-4v29.5a2.42 2.42 0 0 0 2.4 2.44h38.44c1.33 0 2.4-1.1 2.4-2.44v-10.87l-20.96-14.64Z"/><path fill="#21A366" d="M425.15 139.31h-19.88c-1.32 0-2.4 1.1-2.4 2.44v10.87l22.28 13.3 11.8 4 9.17-4v-13.3l-20.97-13.3Z"/><path fill="#107C41" d="M402.87 152.62h22.28v13.3h-22.28v-13.3Z"/><path fill="#000" d="M418.81 149.96h-15.94v33.26h15.94c1.33 0 2.4-1.1 2.4-2.44V152.4a2.43 2.43 0 0 0-2.4-2.44Z" opacity=".1"/><path fill="#000" d="M417.5 151.29h-14.63v33.26h14.63c1.33 0 2.4-1.1 2.4-2.44v-28.38a2.43 2.43 0 0 0-2.4-2.44Z" opacity=".2"/><path fill="#000" d="M417.5 151.29h-14.63v30.6h14.63c1.33 0 2.4-1.1 2.4-2.44v-25.72a2.43 2.43 0 0 0-2.4-2.44Z" opacity=".2"/><path fill="#000" d="M416.2 151.29h-13.33v30.6h13.32c1.33 0 2.4-1.1 2.4-2.44v-25.72a2.43 2.43 0 0 0-2.4-2.44Z" opacity=".2"/><path fill="url(#h)" d="M392.17 151.29h24.02c1.33 0 2.4 1.1 2.4 2.44v24.4a2.42 2.42 0 0 1-2.4 2.43h-24.02c-1.33 0-2.4-1.1-2.4-2.44v-24.4a2.42 2.42 0 0 1 2.4-2.43Z"/><path fill="#fff" d="m397.2 173.85 5.06-7.95-4.63-7.9h3.73l2.52 5.05c.24.48.4.84.48 1.07h.03c.17-.38.35-.75.53-1.11l2.7-5.01h3.42l-4.75 7.86 4.87 8h-3.64l-2.92-5.56a4.68 4.68 0 0 1-.35-.74h-.04c-.08.25-.2.5-.34.72l-3 5.57h-3.66Z"/><path fill="#33C481" d="M443.72 139.31h-18.57v13.3h20.97v-10.86a2.42 2.42 0 0 0-2.4-2.44Z"/><path fill="#107C41" d="M425.15 165.93h20.97v13.3h-20.97v-13.3Z"/></g><g clip-path="url(#i)"><mask id="j" width="742" height="700" x="-328" y="186" maskUnits="userSpaceOnUse" style="mask-type:luminance"><path fill="#fff" d="M-327.33 885h741.08V186.02h-741.08V885Z"/></mask><g fill="#D91920" mask="url(#j)"><path d="M42.18 300.45c-1.51-.1-3.26-.35-4.63-.72-.26-.07-1.33-.44-1.6-.56-4.79-2.1-8.13-6.66-8.13-11.96 0-7.27 6.27-13.19 13.99-13.19 7.64 0 13.86 5.82 13.97 13h5.05c-.1-9.8-8.6-17.76-19.02-17.76-10.5 0-19.03 8.05-19.03 17.95 0 6.82 4.06 12.76 10.02 15.8 1.08.53 2.62 1.08 3.14 1.23 1.7.48 3.79.8 5.64.93.63.04 2.83.07 3.47.07h34.78v-4.75H45.11c-.46 0-2.48-.01-2.93-.04ZM45.1 293c-.37 0-2.29-.01-2.64-.04-.6-.05-1.48-.13-2.04-.25a5.63 5.63 0 0 1-4.65-5.5c0-3.13 2.7-5.68 6.03-5.68 3.25 0 5.9 2.45 6 5.5h4.86c-.1-5.58-4.92-10.07-10.86-10.07-6.01 0-10.88 4.59-10.88 10.25 0 4 2.43 7.45 5.96 9.14.55.3 1.57.61 1.86.68 1 .25 2.34.42 3.43.5.4.03 2.37.04 2.79.04h34.86V293H45.11Zm-25.45 12.22h-5.08v-31.19H7.15v-4.8h12.51v36Zm-18.1-28.8v4.62h5.59v24.18h4.88v-28.8H1.57ZM70.85 269.57c-1.83 0-3.35 1.38-3.35 3.1 0 1.74 1.52 3.17 3.35 3.17a3.24 3.24 0 0 0 3.35-3.16c0-1.73-1.46-3.1-3.35-3.1Zm0 5.76c-1.51 0-2.82-1.12-2.82-2.65 0-1.45 1.3-2.6 2.82-2.6 1.51 0 2.8 1.15 2.8 2.6 0 1.53-1.29 2.65-2.8 2.65Z"/><path d="M72.12 273.53c0-.35-.05-.67-.47-.8.53-.18.58-.5.58-.7 0-.8-.77-.9-1.09-.9h-1.46v3.1h.6v-1.28h.49c.69 0 .74.3.74.58 0 .53 0 .63.14.7h.6c-.13-.13-.07-.22-.13-.7Zm-1.11-1.03h-.72v-.98h.61c.43 0 .72.13.72.5 0 .2-.1.48-.61.48Z"/></g></g><g clip-path="url(#k)"><path fill="#231F20" d="M208.96 290.83a8.51 8.51 0 0 0-6.46 2.99l-4.04-2.92a11.44 11.44 0 0 0 .02-7.63l4.03-2.9a8.51 8.51 0 0 0 6.45 2.98 8.7 8.7 0 0 0 8.6-8.77 8.7 8.7 0 0 0-8.6-8.76 8.7 8.7 0 0 0-8.25 11.25l-4.04 2.9a11.07 11.07 0 0 0-6.88-4.08v-4.96a8.74 8.74 0 0 0 6.83-8.58 8.7 8.7 0 0 0-8.6-8.77 8.7 8.7 0 0 0-8.6 8.77 8.74 8.74 0 0 0 6.67 8.54v5.02c-5.21.93-9.19 5.57-9.19 11.14 0 5.6 4.02 10.26 9.27 11.16v5.3a8.74 8.74 0 0 0-6.76 8.56 8.7 8.7 0 0 0 8.6 8.76 8.7 8.7 0 0 0 8.61-8.76c0-4.19-2.9-7.7-6.75-8.56v-5.3a11.07 11.07 0 0 0 6.76-4.01l4.07 2.93a8.7 8.7 0 0 0 8.25 11.23 8.7 8.7 0 0 0 8.61-8.76 8.7 8.7 0 0 0-8.6-8.77Zm0-20.5c2.3 0 4.17 1.91 4.17 4.25a4.22 4.22 0 0 1-4.17 4.25c-2.3 0-4.18-1.9-4.18-4.25a4.22 4.22 0 0 1 4.18-4.25Zm-25.12-7.98a4.22 4.22 0 0 1 4.18-4.25c2.3 0 4.17 1.9 4.17 4.25a4.22 4.22 0 0 1-4.17 4.25c-2.3 0-4.18-1.9-4.18-4.25Zm8.35 49.72a4.22 4.22 0 0 1-4.17 4.25c-2.3 0-4.18-1.9-4.18-4.25a4.22 4.22 0 0 1 4.18-4.25c2.3 0 4.17 1.9 4.17 4.25Zm-4.17-19.09a5.88 5.88 0 0 1-5.82-5.93 5.88 5.88 0 0 1 5.82-5.93c3.2 0 5.82 2.66 5.82 5.93a5.88 5.88 0 0 1-5.82 5.93Zm20.94 10.87c-2.3 0-4.18-1.9-4.18-4.25a4.22 4.22 0 0 1 4.18-4.25c2.3 0 4.17 1.9 4.17 4.25a4.22 4.22 0 0 1-4.17 4.25Z"/></g><g fill="#00684A" clip-path="url(#l)"><path d="M320.88 271.86a66.94 66.94 0 0 1-3.34-4.17.08.08 0 0 0-.1 0c-.3.4-1.7 2.3-3.34 4.17-14.08 17.29 2.21 28.96 2.21 28.96l.14.08c.12 1.8.42 4.4.42 4.4h1.21s.31-2.58.43-4.4l.14-.1c.02.02 16.3-11.65 2.23-28.94Zm-3.4 28.7s-.73-.6-.93-.9v-.03l.88-18.82c0-.06.1-.06.1 0l.88 18.82v.03c-.2.3-.93.9-.93.9ZM347.96 296.6l-6.78-15.86-.02-.04h-5.28v1.07h.85c.26 0 .5.1.69.27.18.18.27.41.27.66l-.15 15.95c0 .5-.43.91-.94.93h-.87v1.06h5.14v-1.05l-.53-.01c-.52-.02-.94-.43-.94-.93v-15.03l7.4 17.02c.1.25.34.4.62.4.27 0 .51-.15.62-.4l7.23-16.64.1 14.65c0 .52-.42.93-.95.94h-.55v1.05h6.02v-1.05h-.82a.97.97 0 0 1-.96-.92l-.04-15.96c0-.5.42-.91.94-.93l.88-.01v-1.07h-5.14l-6.79 15.9ZM395.29 299.31a.86.86 0 0 1-.26-.64v-7.81c0-1.5-.46-2.66-1.38-3.49a5.28 5.28 0 0 0-3.7-1.25c-2.18 0-3.9.84-5.11 2.5-.02.03-.06.05-.11.05s-.08-.03-.08-.07l-.56-2.09h-.95l-2.42 1.33v.73h.62c.3 0 .54.07.7.22.17.14.26.36.26.67v9.2c0 .26-.09.48-.26.64a.94.94 0 0 1-.67.25h-.6v1.06h5.58v-1.06h-.61a.95.95 0 0 1-.68-.25.86.86 0 0 1-.25-.64v-6.1c0-.77.18-1.54.51-2.3.36-.75.87-1.37 1.56-1.85a4.18 4.18 0 0 1 2.46-.72c1.06 0 1.87.32 2.38.96.5.65.76 1.48.76 2.47v7.52c0 .26-.1.48-.26.64a.94.94 0 0 1-.67.25h-.61v1.07h5.58v-1.07h-.6a.79.79 0 0 1-.63-.22ZM446.3 281.9c-1.54-.79-3.26-1.2-5.13-1.2h-7.26v1.07h.71c.27 0 .52.1.76.34.23.22.35.47.35.73v15.78c0 .26-.13.5-.35.73-.23.22-.49.34-.76.34h-.71v1.07h7.26c1.87 0 3.6-.41 5.13-1.2a9.22 9.22 0 0 0 3.71-3.47c.91-1.5 1.38-3.3 1.38-5.35s-.47-3.84-1.38-5.35a9.19 9.19 0 0 0-3.7-3.49Zm2.17 8.81c0 1.88-.35 3.46-1.03 4.74a6.78 6.78 0 0 1-2.71 2.84 7.56 7.56 0 0 1-3.7.93h-1.46c-.27 0-.51-.1-.76-.34a1.02 1.02 0 0 1-.35-.73v-14.88c0-.27.11-.5.35-.74.23-.22.49-.33.76-.33h1.47c1.33 0 2.57.3 3.69.92a6.8 6.8 0 0 1 2.7 2.84 10.04 10.04 0 0 1 1.04 4.75ZM468.56 291.78c-.67-.74-1.97-1.37-3.5-1.71 2.11-1.01 3.2-2.44 3.2-4.27 0-1-.28-1.89-.83-2.65a5.44 5.44 0 0 0-2.32-1.8c-.99-.43-2.15-.65-3.46-.65h-8.22v1.07h.65c.28 0 .52.1.77.34.23.22.35.47.35.73v15.78c0 .26-.12.5-.35.73a1.1 1.1 0 0 1-.77.34h-.71v1.07h8.92c1.36 0 2.63-.22 3.77-.66a6.12 6.12 0 0 0 2.72-1.94c.67-.85 1-1.89 1-3.1a4.8 4.8 0 0 0-1.22-3.28Zm-10.24 7.11a1.02 1.02 0 0 1-.35-.73v-7.08h4.25c1.49 0 2.63.37 3.43 1.1.8.73 1.19 1.69 1.19 2.86 0 .7-.19 1.4-.52 2.02a3.93 3.93 0 0 1-1.57 1.56c-.69.4-1.54.6-2.53.6h-3.13c-.28.01-.52-.1-.76-.33Zm-.33-9.32v-6.29c0-.26.1-.5.35-.73.23-.22.49-.34.76-.34h2.02c1.44 0 2.51.35 3.19 1.03.67.69 1 1.56 1 2.65 0 1.11-.32 2-.94 2.68-.63.66-1.57 1-2.83 1H458ZM374.03 287.05a8.22 8.22 0 0 0-3.88-.93c-1.4 0-2.72.3-3.87.93a7.04 7.04 0 0 0-2.77 2.63 7.42 7.42 0 0 0-1.03 3.9c0 1.46.34 2.78 1.03 3.9a7.03 7.03 0 0 0 2.77 2.63c1.16.62 2.46.94 3.87.94a8 8 0 0 0 3.88-.94 7.03 7.03 0 0 0 2.77-2.63 7.42 7.42 0 0 0 1.03-3.9 7.14 7.14 0 0 0-3.8-6.53Zm1.12 6.53c0 1.8-.46 3.26-1.36 4.31a4.55 4.55 0 0 1-3.64 1.6 4.55 4.55 0 0 1-3.63-1.6c-.91-1.05-1.36-2.51-1.36-4.3 0-1.8.45-3.26 1.36-4.32a4.55 4.55 0 0 1 3.63-1.59c1.52 0 2.74.54 3.64 1.6a6.44 6.44 0 0 1 1.36 4.3ZM427.68 287.05a8.23 8.23 0 0 0-3.88-.93c-1.4 0-2.72.3-3.87.93a7.04 7.04 0 0 0-2.77 2.63 7.42 7.42 0 0 0-1.03 3.9c0 1.46.35 2.78 1.03 3.9a7.04 7.04 0 0 0 2.77 2.63c1.16.62 2.47.94 3.87.94 1.41 0 2.73-.3 3.88-.94a7.03 7.03 0 0 0 2.77-2.63 7.43 7.43 0 0 0 1.03-3.9 7.24 7.24 0 0 0-3.8-6.53Zm1.12 6.53c0 1.8-.45 3.26-1.36 4.31a4.55 4.55 0 0 1-3.64 1.6 4.55 4.55 0 0 1-3.63-1.6 6.42 6.42 0 0 1-1.36-4.3c0-1.82.45-3.26 1.36-4.32a4.55 4.55 0 0 1 3.63-1.59c1.52 0 2.74.54 3.64 1.6a6.53 6.53 0 0 1 1.36 4.3ZM406.04 286.12c-1.22 0-2.33.25-3.34.75-1 .5-1.8 1.17-2.36 2.04a5.03 5.03 0 0 0-.2 5.3c.43.73 1.01 1.33 1.74 1.83l-2.18 2.85c-.27.35-.3.82-.1 1.2.2.4.6.63 1.06.63h.63c-.61.4-1.1.87-1.44 1.43a3.6 3.6 0 0 0 1.13 5.05c1.13.77 2.72 1.17 4.71 1.17 1.4 0 2.72-.22 3.92-.65a6.9 6.9 0 0 0 2.94-1.88 4.28 4.28 0 0 0 1.13-2.96c0-1.2-.45-2.06-1.52-2.88-.92-.69-2.35-1.05-4.13-1.05h-6.1c-.02 0-.03-.02-.03-.02s-.02-.03 0-.04l1.58-2.06a5.78 5.78 0 0 0 2.41.49c1.28 0 2.44-.25 3.45-.75 1-.5 1.81-1.18 2.4-2.04.57-.85.86-1.8.86-2.82 0-1.09-.55-3.07-2.04-4.08l.01-.02 3.28.36v-1.46h-5.24a8.34 8.34 0 0 0-2.57-.4Zm1.83 9.17a3.89 3.89 0 0 1-4.51-.59c-.76-.69-1.14-1.7-1.14-3 0-1.28.38-2.3 1.14-2.99a3.89 3.89 0 0 1 4.51-.58c.58.3 1.06.75 1.44 1.35.36.6.56 1.35.56 2.23 0 .9-.18 1.64-.56 2.23-.37.6-.86 1.06-1.44 1.35Zm-4.13 5.42h4.13c1.15 0 1.88.22 2.37.69.49.47.73 1.1.73 1.83 0 1.07-.44 1.95-1.33 2.62a5.8 5.8 0 0 1-3.53 1 5.53 5.53 0 0 1-3.13-.81 2.7 2.7 0 0 1-1.17-2.37c0-.64.18-1.25.55-1.77.36-.53.8-.91 1.38-1.2ZM472.87 300.51a1.81 1.81 0 0 1-.7-2.5c.16-.3.4-.51.7-.67.3-.16.63-.24 1.01-.24s.71.08 1.01.24a1.81 1.81 0 0 1 .7 2.5c-.16.3-.4.51-.7.67a2.19 2.19 0 0 1-2.02 0Zm1.86-.21c.25-.13.44-.34.58-.57a1.67 1.67 0 0 0 0-1.64 1.36 1.36 0 0 0-.58-.56 1.83 1.83 0 0 0-1.7 0c-.25.13-.43.33-.58.56a1.68 1.68 0 0 0 0 1.64c.14.25.33.44.59.57.25.13.53.2.84.2.32 0 .6-.07.85-.2Zm-1.66-.5v-.14l.03-.01h.09c.03 0 .06-.02.07-.03.03-.03.03-.05.03-.07v-1.34a.11.11 0 0 0-.03-.08c-.03-.02-.04-.02-.07-.02h-.1l-.02-.02v-.13l.03-.01h.78c.23 0 .4.04.53.14.14.1.2.23.2.4 0 .13-.05.26-.16.35a.6.6 0 0 1-.37.17l.18.06.35.53c.03.05.06.06.1.06h.1v.16h-.48l-.02-.01-.49-.78h-.12v.52l.03.07c.03.03.05.03.08.03h.09l.03.01v.13l-.03.02h-.8l-.03-.02Zm.77-.94c.12 0 .22-.03.28-.1a.4.4 0 0 0 .1-.28c0-.12-.02-.2-.08-.27-.06-.08-.15-.1-.26-.1h-.06a.12.12 0 0 0-.07.02c-.03.03-.03.05-.03.08v.65h.12Z"/></g><path fill="#231F20" d="M19.19 615.99c-1.39 0-2.6-.34-3.67-1a6.97 6.97 0 0 1-2.49-2.89 10.47 10.47 0 0 1-.88-4.47c0-1.72.3-3.2.88-4.41a6.66 6.66 0 0 1 2.5-2.81 6.85 6.85 0 0 1 3.66-.98 6.5 6.5 0 0 1 6.15 3.79c.6 1.22.9 2.69.9 4.42 0 1.72-.3 3.21-.9 4.46a6.8 6.8 0 0 1-2.47 2.88c-1.05.67-2.28 1-3.68 1Zm0-2.47a3.5 3.5 0 0 0 3-1.59 7.38 7.38 0 0 0 1.12-4.3c0-1.78-.37-3.18-1.12-4.2a3.54 3.54 0 0 0-3-1.53c-1.26 0-2.26.51-3 1.53-.76 1.02-1.13 2.42-1.13 4.2 0 1.8.37 3.23 1.12 4.3a3.5 3.5 0 0 0 3 1.59Zm10.25 2.17v-15.97h4.27c2.44 0 4.35.66 5.72 1.98 1.36 1.32 2.05 3.3 2.05 5.93 0 2.66-.68 4.67-2.03 6.04-1.35 1.35-3.22 2.02-5.6 2.02h-4.41Zm2.83-2.3h1.25c1.6 0 2.85-.46 3.73-1.38.88-.95 1.32-2.4 1.32-4.38 0-1.95-.44-3.37-1.32-4.27-.88-.9-2.12-1.34-3.73-1.34h-1.25v11.38Zm12.43 2.3v-15.97h5.1c1.11 0 2.09.13 2.93.37.87.24 1.54.66 2.03 1.25.5.56.76 1.34.76 2.31 0 .75-.2 1.46-.59 2.13-.39.65-.93 1.1-1.63 1.34v.1c.87.2 1.6.61 2.17 1.25.58.61.88 1.46.88 2.53a4.2 4.2 0 0 1-2.98 4.2c-.93.33-1.98.5-3.15.5H44.7Zm2.83-9.37h2.03c1.1 0 1.91-.2 2.42-.61a2 2 0 0 0 .75-1.64c0-.78-.26-1.34-.78-1.66a4.49 4.49 0 0 0-2.34-.49h-2.08v4.4Zm0 7.18h2.4c1.17 0 2.07-.22 2.7-.64.64-.44.96-1.1.96-2 0-.85-.31-1.46-.93-1.83a5.17 5.17 0 0 0-2.73-.59h-2.4v5.06Zm18.11 2.49a6.87 6.87 0 0 1-6.25-3.74 9.75 9.75 0 0 1-.95-4.5c0-1.73.33-3.22.98-4.46a7.07 7.07 0 0 1 6.32-3.86c1.01 0 1.9.2 2.69.61.78.4 1.42.88 1.93 1.42l-1.52 1.83c-.4-.42-.86-.76-1.36-1a3.99 3.99 0 0 0-3.98.32 4.64 4.64 0 0 0-1.6 1.97c-.37.87-.55 1.9-.55 3.1 0 1.83.4 3.26 1.2 4.3a3.84 3.84 0 0 0 3.2 1.54c.7 0 1.34-.15 1.9-.44.55-.3 1.05-.7 1.51-1.2l1.51 1.79a6.95 6.95 0 0 1-2.24 1.73c-.83.4-1.76.59-2.79.59Z"/><path fill="#BDC0C8" fill-rule="evenodd" d="M72 561.95H10.96v12.52c0 3.46 13.66 6.27 30.52 6.27S72 577.94 72 574.48v-12.53Z" clip-rule="evenodd"/><ellipse cx="41.48" cy="561.95" fill="#fff" rx="30.52" ry="6.26"/><path fill="#BDC0C8" fill-rule="evenodd" d="M72 546.3H10.96v12.52c0 3.46 13.66 6.26 30.52 6.26S72 562.28 72 558.82V546.3Z" clip-rule="evenodd"/><ellipse cx="41.48" cy="546.3" fill="#fff" rx="30.52" ry="6.26"/><path fill="#BDC0C8" fill-rule="evenodd" d="M72 530.65H10.96v12.52c0 3.46 13.66 6.26 30.52 6.26S72 546.63 72 543.17v-12.52Z" clip-rule="evenodd"/><ellipse cx="41.48" cy="530.65" fill="#ECEDF2" rx="30.52" ry="6.26"/><path fill="#ECEDF2" d="M181 516.56h49.95l20.49 20.43v76.62H181v-97.05Z"/><path fill="#9A9FAF" d="m231.09 516.56 20.35 20.35h-20.35v-20.35ZM196.65 569.78h62.61v26.61h-62.61z"/><path fill="#fff" d="m205.9 591.78 4.65-8.44-4.36-7.94h3.23l1.8 3.63a94.94 94.94 0 0 0 1.25 2.5h.11l.55-1.32.55-1.18 1.73-3.63h3.08l-4.36 8.06 4.66 8.32h-3.23l-2-3.86a88.7 88.7 0 0 0-.65-1.27c-.2-.44-.43-.9-.68-1.4h-.1a69.14 69.14 0 0 1-1.2 2.67l-1.96 3.86h-3.08Zm15.3 0V575.4h3.28l2.9 8.01c.19.52.36 1.06.53 1.6l.52 1.6h.1a58.68 58.68 0 0 0 1.03-3.2l2.83-8.01h3.3v16.38h-2.67v-7.49a30.78 30.78 0 0 1 .2-3.53l.17-1.68h-.1l-1.32 3.8-2.68 7.37h-1.73l-2.7-7.36-1.31-3.8h-.1a90.57 90.57 0 0 1 .3 3.52c.05.6.08 1.16.08 1.68v7.49h-2.63Zm18.66 0V575.4h2.9v13.92h6.81v2.46h-9.71Z"/><path fill="#ECEDF2" d="M368 516.56h51.06L440 536.99v76.62h-72v-97.05Z"/><path fill="#9A9FAF" d="M418.09 516.56 440 536.9H418.1v-20.35ZM383.65 569.78h62.61v26.61h-62.61z"/><path fill="#fff" d="M403.15 592.08a7.04 7.04 0 0 1-6.41-3.83 10 10 0 0 1-.98-4.61c0-1.79.34-3.31 1-4.58a7.25 7.25 0 0 1 6.5-3.96c1.03 0 1.95.2 2.75.63.8.41 1.46.9 1.98 1.45l-1.56 1.88a4.9 4.9 0 0 0-1.4-1.03 4.08 4.08 0 0 0-4.08.33 4.75 4.75 0 0 0-1.63 2.02 7.96 7.96 0 0 0-.57 3.18c0 1.87.4 3.34 1.22 4.41a3.95 3.95 0 0 0 3.28 1.58 4.1 4.1 0 0 0 1.96-.45 6.35 6.35 0 0 0 1.55-1.23l1.55 1.83a6.62 6.62 0 0 1-5.16 2.38Zm12.02 0a8.49 8.49 0 0 1-5.91-2.4l1.7-1.98c.59.55 1.25 1 2 1.35.76.33 1.5.5 2.26.5.94 0 1.64-.2 2.13-.58.48-.38.73-.89.73-1.52 0-.69-.25-1.18-.73-1.48-.47-.3-1.07-.61-1.8-.93l-2.26-.97a8.88 8.88 0 0 1-1.58-.9c-.5-.37-.91-.84-1.25-1.4a4.16 4.16 0 0 1-.47-2.06c0-.87.23-1.65.7-2.33a5 5 0 0 1 1.95-1.65 6.85 6.85 0 0 1 5.61-.05c.89.36 1.65.86 2.28 1.5l-1.48 1.85a6.64 6.64 0 0 0-1.65-1.03 4.66 4.66 0 0 0-1.9-.37c-.77 0-1.4.17-1.88.52-.47.34-.7.8-.7 1.4 0 .42.11.78.35 1.06.25.27.57.5.97.7.4.18.83.37 1.28.55l2.23.93c.97.42 1.76.97 2.38 1.65.62.67.93 1.6.93 2.78 0 .89-.24 1.7-.7 2.43a5.05 5.05 0 0 1-2.03 1.78 7 7 0 0 1-3.16.65Zm11.8-.3-5.11-16.38h3.08l2.3 8.24c.27.92.51 1.8.73 2.65.21.86.46 1.75.72 2.68h.1c.29-.93.53-1.83.73-2.68l.7-2.65 2.28-8.24h2.98l-5.08 16.38h-3.44Z"/><g fill-rule="evenodd" clip-path="url(#m)" clip-rule="evenodd"><path fill="#111" d="M23.7 428.6c.58 4.56 3.06 8 6.85 11.36l-1.36-.68a30.27 30.27 0 0 1 9.72-58c-18.11 3.58-35.47 24.5-15.2 47.32Z"/><path fill="#111" d="M65.05 401.82c-1.37-9.8-8.9-16.65-22.6-20.59a30.28 30.28 0 0 1 28.93 30.23c0 16.72-12.6 29.64-28.95 30.38-1.55.08-3.1-.19-4.6-.66v-34.1c.5-.75.5-1.5 0-2.26v-7.25h1.67a11.3 11.3 0 0 0-1.67-.97v-2.1c8.77 3.35 12.85 3.73 12.24 1.11.76 2.16.1 3.14-2 2.93-2.41-.37-3.9-.2-4.5.5 4.34 2.15 6.65 4.23 6.94 6.25.41 3.4-1.2 7.14-4.82 11.24-2.29 2.85-1.1 5.88 2.59 6.36 11.45-.56 17.05-7.6 16.77-21.07Zm-27.22 39.36a21.8 21.8 0 0 1-8.17-4.8c-2.7-2.8-4.55-7.3-5.23-13.78V420.28c.41-5.2 3.89-8.87 10.44-10.98 1.48-.73 2.48-1.47 2.96-2.22v34.1Zm0-36.36c-.2-.33-.52-.67-.92-1.01a5.85 5.85 0 0 0-2.28-1.06c-2.66-.08-4.1.59-4.33 2-4.51-2-4.64-4.29-.4-6.84a9.64 9.64 0 0 1 3.65-.37c-.66-2.94.46-4.07 3.39-3.38l.9.34v2.1c-1.35-.63-1.87-.31-1.6.96h1.6v7.26Z"/><path fill="url(#n)" d="M23.53 428.95c.57 4.56 3.05 8 6.84 11.37l-1.37-.69a30.27 30.27 0 0 1 9.72-58c-18.1 3.58-35.46 24.5-15.2 47.32Z"/><path fill="url(#o)" d="M64.87 402.17c-1.37-9.8-8.9-16.65-22.6-20.58a30.28 30.28 0 0 1 28.93 30.23c0 16.71-12.6 29.64-28.95 30.38-1.55.07-3.1-.2-4.6-.67v-34.1c.5-.75.5-1.5 0-2.26v-7.25h1.67a11.3 11.3 0 0 0-1.67-.97v-2.1c8.78 3.35 12.85 3.73 12.24 1.12.76 2.15.1 3.14-2 2.92-2.41-.37-3.9-.2-4.5.51 4.34 2.15 6.65 4.23 6.94 6.25.41 3.4-1.2 7.14-4.82 11.24-2.29 2.84-1.1 5.87 2.59 6.36 11.45-.57 17.05-7.6 16.77-21.08Zm-27.22 39.36a21.8 21.8 0 0 1-8.17-4.79c-2.7-2.8-4.55-7.3-5.23-13.79v-2.31c.41-5.21 3.89-8.88 10.44-10.98 1.48-.73 2.48-1.47 2.96-2.23v34.1Zm0-36.36c-.2-.33-.52-.66-.92-1a5.85 5.85 0 0 0-2.28-1.06c-2.66-.08-4.1.58-4.33 2-4.51-2-4.64-4.3-.4-6.85a9.64 9.64 0 0 1 3.65-.37c-.66-2.93.46-4.07 3.39-3.38l.9.35v2.09c-1.35-.63-1.87-.3-1.6.97h1.6v7.25Z"/></g><path fill="#73B0DE" fill-rule="evenodd" d="M435.83 423.08c.32-.44.62-.9.9-1.35-.03.44-.05.9-.05 1.35h-.85Zm17.53 16.78h.1a16.77 16.77 0 1 0-1.36-33.5 11.22 11.22 0 0 0-10.94-13.46c-1.06 0-2.09.15-3.06.42a29.07 29.07 0 0 0-52.7 1.44 22.4 22.4 0 0 0-27.42 16.1 14.54 14.54 0 0 0 1.56 29h93.82Z" clip-rule="evenodd"/><path fill="#fff" d="m373.21 427 2.98-5.4-2.79-5.06h2.07l1.15 2.32a67.6 67.6 0 0 0 .8 1.6h.06l.36-.85c.11-.27.23-.52.35-.75l1.1-2.32h1.97l-2.78 5.15 2.97 5.31h-2.06l-1.28-2.46-.42-.82-.43-.9h-.06a42.83 42.83 0 0 1-.77 1.72l-1.25 2.46h-1.97Zm9.78 0v-10.46h2.1l1.85 5.12.34 1.02.33 1.02h.07a40.75 40.75 0 0 0 .65-2.04l1.81-5.12h2.11V427h-1.71v-4.78l.03-1.08.1-1.18.11-1.07h-.06l-.85 2.43-1.71 4.7h-1.1l-1.74-4.7-.83-2.43h-.06a57.57 57.57 0 0 1 .24 3.33V427h-1.68Zm11.92 0v-10.46h1.86v8.9h4.35V427h-6.21Zm14.29.2a5.42 5.42 0 0 1-3.78-1.54l1.1-1.27c.37.35.8.64 1.27.87.48.2.96.32 1.44.32.6 0 1.05-.13 1.36-.37.31-.25.47-.57.47-.98 0-.44-.16-.75-.47-.94-.3-.2-.68-.4-1.15-.6l-1.44-.62a5.65 5.65 0 0 1-1-.57 2.96 2.96 0 0 1-.8-.9c-.21-.36-.31-.8-.31-1.31 0-.56.15-1.05.45-1.49.3-.45.72-.8 1.24-1.06a4.38 4.38 0 0 1 3.58-.03c.57.24 1.06.56 1.46.96l-.94 1.19c-.33-.28-.68-.5-1.06-.66a2.98 2.98 0 0 0-1.21-.24 2 2 0 0 0-1.2.34c-.3.2-.45.5-.45.9 0 .26.07.48.22.66.16.18.37.32.63.45.25.12.53.24.81.35l1.43.6a4.3 4.3 0 0 1 1.52 1.05c.4.43.59 1.02.59 1.78 0 .56-.15 1.08-.45 1.55-.3.47-.73.85-1.3 1.14-.55.27-1.22.41-2.01.41Zm9.73 0c-.91 0-1.71-.23-2.4-.66a4.57 4.57 0 0 1-1.63-1.9 6.86 6.86 0 0 1-.58-2.92c0-1.13.2-2.1.57-2.9.4-.8.94-1.4 1.64-1.84.69-.42 1.49-.64 2.4-.64a4.27 4.27 0 0 1 4.03 2.48c.4.8.6 1.77.6 2.9s-.2 2.1-.6 2.93a4.46 4.46 0 0 1-1.62 1.89c-.69.43-1.5.65-2.41.65Zm0-1.62a2.3 2.3 0 0 0 1.96-1.04c.5-.7.74-1.65.74-2.82s-.24-2.1-.74-2.75c-.49-.67-1.14-1.01-1.96-1.01-.82 0-1.48.34-1.97 1-.5.67-.74 1.59-.74 2.76 0 1.17.25 2.11.74 2.82a2.3 2.3 0 0 0 1.97 1.04Zm8.7-4.15-.37 1.28h2.68l-.37-1.28a54.39 54.39 0 0 1-.95-3.45h-.06a54.03 54.03 0 0 1-.93 3.45Zm-3.5 5.57 3.4-10.46h2.18l3.41 10.46h-1.95l-.82-2.83h-3.52l-.81 2.83h-1.9Zm10.28 0v-10.46h3.3c.78 0 1.47.1 2.08.3.6.2 1.08.54 1.44 1 .35.48.52 1.12.52 1.93 0 .77-.17 1.4-.52 1.9-.36.5-.83.88-1.43 1.12-.6.25-1.27.37-2.03.37h-1.5V427h-1.86Zm1.86-5.33h1.36c1.53 0 2.3-.63 2.3-1.9 0-.66-.2-1.12-.6-1.36-.4-.26-.99-.39-1.77-.39h-1.3v3.65Z"/><path stroke="#fff" stroke-width="1.57" d="m369.57 415-6.26 6.51 5.78 6.01M445.66 415l6.26 6.51-5.78 6.01"/><path fill="#73B0DE" fill-rule="evenodd" d="M160.54 439.86h93.91a16.77 16.77 0 1 0-1.35-33.5 11.18 11.18 0 0 0-13.37-13.2 29.52 29.52 0 0 0-53.19 1.64 22.36 22.36 0 0 0-27.56 16.07 14.54 14.54 0 0 0 1.56 28.99Z" clip-rule="evenodd"/><path fill="#fff" d="M172.93 427v-10.46h3.53c.73 0 1.38.1 1.96.28.58.2 1.04.52 1.37.98.34.45.51 1.06.51 1.84 0 .8-.19 1.44-.57 1.94-.38.49-.88.84-1.5 1.05l2.49 4.37h-2.08l-2.26-4.1h-1.6v4.1h-1.85Zm1.85-5.57h1.5c.7 0 1.25-.15 1.62-.45.39-.3.58-.75.58-1.34 0-.6-.2-1.01-.58-1.25a2.99 2.99 0 0 0-1.63-.37h-1.49v3.41Zm7.62 5.57v-10.46h6.3v1.56h-4.45v2.68h3.76v1.56h-3.76v3.1h4.61V427h-6.46Zm11.66.2a5.42 5.42 0 0 1-3.77-1.54l1.08-1.27c.38.35.8.64 1.28.87.48.2.96.32 1.44.32.6 0 1.05-.13 1.36-.37.31-.25.47-.57.47-.98 0-.44-.16-.75-.47-.94-.3-.2-.68-.4-1.15-.6l-1.44-.62a5.59 5.59 0 0 1-1-.57 2.94 2.94 0 0 1-.8-.9c-.2-.36-.31-.8-.31-1.31 0-.56.15-1.05.45-1.49.3-.45.72-.8 1.25-1.06s1.14-.4 1.82-.4c.6 0 1.2.13 1.76.37s1.05.56 1.46.96l-.95 1.19c-.33-.28-.68-.5-1.05-.66a2.98 2.98 0 0 0-1.22-.24 2 2 0 0 0-1.2.34c-.3.2-.45.5-.45.9 0 .26.08.48.23.66.16.18.36.32.62.45.26.12.53.24.82.35l1.42.6c.62.26 1.13.62 1.52 1.05.4.43.6 1.02.6 1.78 0 .56-.16 1.08-.46 1.55-.3.47-.73.85-1.3 1.14-.55.27-1.22.41-2 .41Zm7.46-.2v-8.9h-3.02v-1.56h7.9v1.56h-3.02v8.9h-1.86Zm12 .2c-.72 0-1.34-.16-1.85-.46-.51-.3-.93-.74-1.26-1.32l1.28-.95c.2.39.45.67.73.85.28.17.58.26.9.26.49 0 .86-.15 1.1-.45.25-.3.37-.82.37-1.57v-7.02h1.86v7.18c0 .63-.11 1.21-.33 1.74a2.8 2.8 0 0 1-1 1.27c-.46.3-1.06.46-1.8.46Zm8.8 0a5.42 5.42 0 0 1-3.78-1.54l1.08-1.27c.38.35.8.64 1.28.87.48.2.96.32 1.44.32.6 0 1.05-.13 1.36-.37.31-.25.47-.57.47-.98 0-.44-.16-.75-.47-.94-.3-.2-.68-.4-1.15-.6l-1.44-.62a5.59 5.59 0 0 1-1-.57 2.94 2.94 0 0 1-.8-.9c-.2-.36-.31-.8-.31-1.31 0-.56.15-1.05.45-1.49.3-.45.72-.8 1.25-1.06s1.14-.4 1.82-.4c.6 0 1.2.13 1.76.37s1.05.56 1.46.96l-.95 1.19c-.33-.28-.68-.5-1.05-.66a2.98 2.98 0 0 0-1.22-.24 2 2 0 0 0-1.2.34c-.3.2-.45.5-.45.9 0 .26.08.48.23.66.16.18.36.32.62.45.26.12.53.24.82.35l1.42.6c.62.26 1.13.62 1.52 1.05.4.43.6 1.02.6 1.78 0 .56-.16 1.08-.46 1.55-.3.47-.73.85-1.3 1.14-.55.27-1.22.41-2 .41Zm9.72 0c-.9 0-1.7-.23-2.4-.66a4.57 4.57 0 0 1-1.63-1.9 6.86 6.86 0 0 1-.58-2.92c0-1.13.2-2.1.58-2.9.4-.8.94-1.4 1.63-1.84.7-.42 1.5-.64 2.4-.64a4.26 4.26 0 0 1 4.03 2.48c.4.8.6 1.77.6 2.9s-.2 2.1-.6 2.93a4.45 4.45 0 0 1-1.62 1.89c-.69.43-1.5.65-2.41.65Zm0-1.62a2.3 2.3 0 0 0 1.97-1.04c.49-.7.73-1.65.73-2.82s-.24-2.1-.73-2.75c-.5-.67-1.15-1.01-1.97-1.01-.82 0-1.48.34-1.97 1a4.54 4.54 0 0 0-.74 2.76c0 1.17.25 2.11.74 2.82a2.3 2.3 0 0 0 1.97 1.04Zm6.72 1.42v-10.46h1.9l3.26 5.88 1.08 2.23h.06l-.16-1.75c-.05-.63-.08-1.23-.08-1.82v-4.54h1.78V427h-1.9l-3.27-5.89-1.07-2.22h-.07l.15 1.74c.06.61.1 1.2.1 1.8V427h-1.78Z"/><path stroke="#fff" stroke-width="1.57" d="M169.92 414a3.13 3.13 0 0 0-3.13 3.13v1.57c0 1.73-1.4 3.13-3.14 3.13 1.73 0 3.13 1.4 3.13 3.13v1.56c0 1.73 1.4 3.13 3.14 3.13M249.1 414c1.72 0 3.12 1.4 3.12 3.13v1.57c0 1.73 1.4 3.13 3.13 3.13a3.13 3.13 0 0 0-3.13 3.13v1.56c0 1.73-1.4 3.13-3.13 3.13"/><defs><clipPath id="a"><path fill="#fff" d="M0 29.74h134.62v18H0z"/></clipPath><clipPath id="b"><path fill="#fff" d="M187.84 0h122.09v76.7H187.84z"/></clipPath><clipPath id="f"><path fill="#fff" d="M28.18 142.44h51.66v46.97H28.18z"/></clipPath><clipPath id="g"><path fill="#fff" d="M389.77 139.31h56.35v53.22h-56.35z"/></clipPath><clipPath id="i"><path fill="#fff" d="M1.56 269.24h78.27v36H1.56z"/></clipPath><clipPath id="k"><path fill="#fff" d="M176.88 253.58h40.7v67.31h-40.7z"/></clipPath><clipPath id="l"><path fill="#fff" d="M308.37 267.67h167.49v40.7h-167.5z"/></clipPath><clipPath id="m"><path fill="#fff" d="M9.4 380.37H72v62.61H9.4z"/></clipPath><linearGradient id="c" x1="243.72" x2="247.53" y1="47.13" y2="44.84" gradientUnits="userSpaceOnUse"><stop stop-color="#909CA9"/><stop offset="1" stop-color="#EDEDEE"/></linearGradient><linearGradient id="d" x1="243.8" x2="246.89" y1="4.97" y2="4.97" gradientUnits="userSpaceOnUse"><stop stop-color="#939FAB"/><stop offset="1" stop-color="#DCDEE1"/></linearGradient><linearGradient id="h" x1="394.77" x2="414.02" y1="149.38" y2="182.21" gradientUnits="userSpaceOnUse"><stop stop-color="#18884F"/><stop offset=".5" stop-color="#117E43"/><stop offset="1" stop-color="#0B6631"/></linearGradient><linearGradient id="n" x1="24.71" x2="24.71" y1="440.32" y2="381.64" gradientUnits="userSpaceOnUse"><stop stop-color="#F40A0B"/><stop offset="1" stop-color="#F5E710"/></linearGradient><linearGradient id="o" x1="47.72" x2="47.72" y1="442.28" y2="381.67" gradientUnits="userSpaceOnUse"><stop stop-color="#F40A0B"/><stop offset="1" stop-color="#F5E710"/></linearGradient><radialGradient id="e" cx="0" cy="0" r="1" gradientTransform="matrix(-4 -1 1 -8 259.4 18.93)" gradientUnits="userSpaceOnUse"><stop stop-color="#EE352C"/><stop offset="1" stop-color="#A91D22"/></radialGradient></defs></svg>